<?xml version="1.0" encoding="utf-8"?>
<!-- Generator: Adobe Illustrator 21.0.0, SVG Export Plug-In . SVG Version: 6.00 Build 0)  -->
<svg version="1.1" id="Layer_1" xmlns="http://www.w3.org/2000/svg" xmlns:xlink="http://www.w3.org/1999/xlink" x="0px" y="0px"
	 viewBox="0 0 100 100" style="enable-background:new 0 0 100 100;" xml:space="preserve">
<g>
	<path d="M42.7,5.4v8.4H5.2c-1.4,0-2.5,1.1-2.5,2.5v80.5c0,1.4,1.1,2.5,2.5,2.5h89.7c1.4,0,2.5-1.1,2.5-2.5V3.4
		c0-1.4-1.2-2.6-2.6-2.5l-49.7,2C43.7,2.9,42.7,4,42.7,5.4z M22.7,94.3h-15V18.8h34.7v14.6H25.2c-1.4,0-2.5,1.1-2.5,2.5V94.3z
		 M48.1,94.3h-6.3v-6h6.3V94.3z M62,94.3h-8.9V86c0-1.4-1.1-2.5-2.5-2.5H39.3c-1.4,0-2.5,1.1-2.5,2.5v8.4h-9.1V38.4H62V94.3z
		 M92.3,94.3H67V35.9c0-1.4-1.1-2.5-2.5-2.5H47.7V7.8L92.3,6V94.3z" fill="#fff"/>
	<path d="M14.2,28.2h3c0.6,0,1-0.4,1-1v-3c0-0.6-0.4-1-1-1h-3c-0.6,0-1,0.4-1,1v3C13.2,27.8,13.7,28.2,14.2,28.2z" fill="#fff" />
	<path d="M31.7,28.2h3c0.6,0,1-0.4,1-1v-3c0-0.6-0.4-1-1-1h-3c-0.6,0-1,0.4-1,1v3C30.7,27.8,31.2,28.2,31.7,28.2z" fill="#fff"/>
	<path d="M58.2,12.4h-3c-0.6,0-1,0.4-1,1v3c0,0.6,0.4,1,1,1h3c0.6,0,1-0.4,1-1v-3C59.2,12.9,58.8,12.4,58.2,12.4z" fill="#fff"/>
	<path d="M73.5,12.4h-3c-0.6,0-1,0.4-1,1v3c0,0.6,0.4,1,1,1h3c0.6,0,1-0.4,1-1v-3C74.5,12.9,74.1,12.4,73.5,12.4z" fill="#fff"/>
	<path d="M86.7,12.4h-3c-0.6,0-1,0.4-1,1v3c0,0.6,0.4,1,1,1h3c0.6,0,1-0.4,1-1v-3C87.7,12.9,87.3,12.4,86.7,12.4z" fill="#fff"/>
	<path d="M58.2,26.4h-3c-0.6,0-1,0.4-1,1v3c0,0.6,0.4,1,1,1h3c0.6,0,1-0.4,1-1v-3C59.2,26.9,58.8,26.4,58.2,26.4z" fill="#fff"/>
	<path d="M73.5,26.4h-3c-0.6,0-1,0.4-1,1v3c0,0.6,0.4,1,1,1h3c0.6,0,1-0.4,1-1v-3C74.5,26.9,74.1,26.4,73.5,26.4z" fill="#fff"/>
	<path d="M86.7,26.4h-3c-0.6,0-1,0.4-1,1v3c0,0.6,0.4,1,1,1h3c0.6,0,1-0.4,1-1v-3C87.7,26.9,87.3,26.4,86.7,26.4z" fill="#fff"/>
	<path d="M73.5,38.7h-3c-0.6,0-1,0.4-1,1v3c0,0.6,0.4,1,1,1h3c0.6,0,1-0.4,1-1v-3C74.5,39.2,74.1,38.7,73.5,38.7z" fill="#fff"/>
	<path d="M86.7,38.7h-3c-0.6,0-1,0.4-1,1v3c0,0.6,0.4,1,1,1h3c0.6,0,1-0.4,1-1v-3C87.7,39.2,87.3,38.7,86.7,38.7z" fill="#fff"/>
	<path d="M73.5,49.7h-3c-0.6,0-1,0.4-1,1v3c0,0.6,0.4,1,1,1h3c0.6,0,1-0.4,1-1v-3C74.5,50.2,74.1,49.7,73.5,49.7z" fill="#fff"/>
	<path d="M86.7,49.7h-3c-0.6,0-1,0.4-1,1v3c0,0.6,0.4,1,1,1h3c0.6,0,1-0.4,1-1v-3C87.7,50.2,87.3,49.7,86.7,49.7z" fill="#fff"/>
	<path d="M73.5,61.7h-3c-0.6,0-1,0.4-1,1v3c0,0.6,0.4,1,1,1h3c0.6,0,1-0.4,1-1v-3C74.5,62.2,74.1,61.7,73.5,61.7z" fill="#fff"/>
	<path d="M86.7,61.7h-3c-0.6,0-1,0.4-1,1v3c0,0.6,0.4,1,1,1h3c0.6,0,1-0.4,1-1v-3C87.7,62.2,87.3,61.7,86.7,61.7z" fill="#fff"/>
	<path d="M73.5,73.7h-3c-0.6,0-1,0.4-1,1v3c0,0.6,0.4,1,1,1h3c0.6,0,1-0.4,1-1v-3C74.5,74.2,74.1,73.7,73.5,73.7z" fill="#fff"/>
	<path d="M86.7,73.7h-3c-0.6,0-1,0.4-1,1v3c0,0.6,0.4,1,1,1h3c0.6,0,1-0.4,1-1v-3C87.7,74.2,87.3,73.7,86.7,73.7z" fill="#fff"/>
	<path d="M73.5,85.7h-3c-0.6,0-1,0.4-1,1v3c0,0.6,0.4,1,1,1h3c0.6,0,1-0.4,1-1v-3C74.5,86.2,74.1,85.7,73.5,85.7z" fill="#fff"/>
	<path d="M86.7,85.7h-3c-0.6,0-1,0.4-1,1v3c0,0.6,0.4,1,1,1h3c0.6,0,1-0.4,1-1v-3C87.7,86.2,87.3,85.7,86.7,85.7z" fill="#fff"/>
	<path d="M14.2,40h3c0.6,0,1-0.4,1-1v-3c0-0.6-0.4-1-1-1h-3c-0.6,0-1,0.4-1,1v3C13.2,39.6,13.7,40,14.2,40z" fill="#fff"/>
	<path d="M14.2,51.8h3c0.6,0,1-0.4,1-1v-3c0-0.6-0.4-1-1-1h-3c-0.6,0-1,0.4-1,1v3C13.2,51.4,13.7,51.8,14.2,51.8z" fill="#fff"/>
	<path d="M14.2,63.6h3c0.6,0,1-0.4,1-1v-3c0-0.6-0.4-1-1-1h-3c-0.6,0-1,0.4-1,1v3C13.2,63.2,13.7,63.6,14.2,63.6z" fill="#fff"/>
	<path d="M14.2,75.4h3c0.6,0,1-0.4,1-1v-3c0-0.6-0.4-1-1-1h-3c-0.6,0-1,0.4-1,1v3C13.2,75,13.7,75.4,14.2,75.4z" fill="#fff"/>
	<path d="M14.2,87.2h3c0.6,0,1-0.4,1-1v-3c0-0.6-0.4-1-1-1h-3c-0.6,0-1,0.4-1,1v3C13.2,86.8,13.7,87.2,14.2,87.2z" fill="#fff"/>
	<path d="M37.8,43.4h-3c-0.6,0-1,0.4-1,1v3c0,0.6,0.4,1,1,1h3c0.6,0,1-0.4,1-1v-3C38.8,43.9,38.4,43.4,37.8,43.4z" fill="#fff"/>
	<path d="M55.1,43.4h-3c-0.6,0-1,0.4-1,1v3c0,0.6,0.4,1,1,1h3c0.6,0,1-0.4,1-1v-3C56.1,43.9,55.6,43.4,55.1,43.4z" fill="#fff"/>
	<path d="M37.8,57.4h-3c-0.6,0-1,0.4-1,1v3c0,0.6,0.4,1,1,1h3c0.6,0,1-0.4,1-1v-3C38.8,57.9,38.4,57.4,37.8,57.4z" fill="#fff"/>
	<path d="M55.1,57.4h-3c-0.6,0-1,0.4-1,1v3c0,0.6,0.4,1,1,1h3c0.6,0,1-0.4,1-1v-3C56.1,57.9,55.6,57.4,55.1,57.4z" fill="#fff"/>
	<path d="M37.8,71.4h-3c-0.6,0-1,0.4-1,1v3c0,0.6,0.4,1,1,1h3c0.6,0,1-0.4,1-1v-3C38.8,71.9,38.4,71.4,37.8,71.4z" fill="#fff"/>
	<path d="M55.1,71.4h-3c-0.6,0-1,0.4-1,1v3c0,0.6,0.4,1,1,1h3c0.6,0,1-0.4,1-1v-3C56.1,71.9,55.6,71.4,55.1,71.4z" fill="#fff"/>
</g>
</svg>
