<svg xmlns="http://www.w3.org/2000/svg" width="18.522" height="17.096" viewBox="0 0 18.522 17.096">
  <path id="Path_100" data-name="Path 100" d="M-734.1,3785c0,1.962-.01,3.925,0,5.888.009,1.463-.349,2.766-2.068,2.789-1.741.023-2.1-1.281-2.094-2.745.007-1.962,0-3.925,0-6.516-1.254,1.169-2.075,1.947-2.911,2.71-1.01.92-2.067,1.506-3.283.321s-.7-2.286.264-3.267c2.032-2.075,4.109-4.108,6.165-6.161a2.3,2.3,0,0,1,3.64-.039q3.246,3.193,6.436,6.444a1.924,1.924,0,0,1,.142,2.975,1.907,1.907,0,0,1-3.1-.073,34.7,34.7,0,0,1-2.243-3.006Z" transform="translate(745.41 -3776.834)" fill="#255b97" stroke="#255b97" stroke-width="0.5"/>
</svg>
