<svg xmlns="http://www.w3.org/2000/svg" width="18.523" height="17.097" viewBox="0 0 18.523 17.097">
  <g id="Spending_-_12px" data-name="Spending - 12px" transform="translate(0.25 0.25)">
    <path id="Path_880" data-name="Path 880" d="M-734.1,3785.784c0-1.961-.01-3.924,0-5.887.009-1.463-.349-2.766-2.068-2.789-1.741-.023-2.1,1.281-2.094,2.745.007,1.961,0,3.924,0,6.516-1.254-1.169-2.075-1.947-2.911-2.71-1.01-.92-2.067-1.506-3.283-.321s-.7,2.287.264,3.268c2.032,2.075,4.109,4.108,6.165,6.161a2.3,2.3,0,0,0,3.64.039q3.246-3.193,6.436-6.444a1.923,1.923,0,0,0,.142-2.975,1.907,1.907,0,0,0-3.1.073,34.7,34.7,0,0,0-2.243,3.006Z" transform="translate(745.16 -3777.108)" fill="#b52423" stroke="#b52423" stroke-width="0.5"/>
  </g>
</svg>
