<svg width="25" height="49" viewBox="0 0 25 49" fill="#233c5a" xmlns="http://www.w3.org/2000/svg">
<path d="M20.439 48.819C19.918 48.8208 19.4033 48.7059 18.9326 48.4827C18.4619 48.2594 18.0472 47.9336 17.719 47.529L0.878986 26.608C0.366238 25.9841 0.0859375 25.2016 0.0859375 24.394C0.0859375 23.5864 0.366238 22.8039 0.878986 22.18L18.313 1.25902C18.606 0.906417 18.9657 0.61499 19.3713 0.401374C19.777 0.187758 20.2208 0.0561374 20.6773 0.014026C21.1339 -0.0280854 21.5942 0.0201376 22.0321 0.155942C22.47 0.291746 22.8769 0.512472 23.2295 0.805517C23.5821 1.09856 23.8735 1.45819 24.0871 1.86386C24.3007 2.26953 24.4324 2.7133 24.4745 3.16984C24.5166 3.62638 24.4684 4.08675 24.3326 4.52465C24.1968 4.96255 23.976 5.36942 23.683 5.72202L8.09299 24.412L23.159 43.101C23.5852 43.6129 23.8559 44.2361 23.939 44.897C24.0222 45.5578 23.9143 46.2287 23.6282 46.8301C23.3421 47.4316 22.8897 47.9386 22.3245 48.291C21.7593 48.6435 21.105 48.8267 20.439 48.819Z" fill="#233c5a"/>
</svg>
