<svg width="25" height="50" viewBox="0 0 25 50" fill="none" xmlns="http://www.w3.org/2000/svg">
<path d="M4.54212 49.819C5.06307 49.8208 5.57781 49.7059 6.0485 49.4826C6.5192 49.2594 6.9339 48.9335 7.26212 48.529L24.1001 27.608C24.6129 26.9841 24.8932 26.2015 24.8932 25.394C24.8932 24.5864 24.6129 23.8039 24.1001 23.18L6.66812 2.25897C6.37799 1.89749 6.01877 1.5974 5.61143 1.37622C5.20409 1.15504 4.75678 1.01719 4.2956 0.970716C3.83442 0.924243 3.3686 0.970077 2.92532 1.10554C2.48204 1.24101 2.07018 1.46339 1.71376 1.75973C1.35734 2.05606 1.0635 2.4204 0.84938 2.8315C0.635264 3.2426 0.505159 3.69222 0.466655 4.15413C0.428152 4.61605 0.482021 5.08101 0.62512 5.52188C0.768219 5.96276 0.997682 6.37072 1.30012 6.72197L16.8851 25.412L1.82212 44.101C1.39592 44.6128 1.12524 45.2361 1.04209 45.8969C0.958947 46.5578 1.06681 47.2286 1.35293 47.8301C1.63905 48.4316 2.09146 48.9385 2.65663 49.291C3.2218 49.6435 3.8761 49.8267 4.54212 49.819Z" fill="white"/>
</svg>
