<svg xmlns="http://www.w3.org/2000/svg" width="28.514" height="19.167" viewBox="0 0 28.514 19.167">
  <path id="Path_880" data-name="Path 880" d="M1488.916,1383.559a2.316,2.316,0,0,1-3.484.023c-1.668,1.187-2.659,1.035-3.815-.487l-7.881,1.189c-.126.019-.254.026-.38.04-.377.042-.67-.084-.726-.481s.183-.606.562-.661q1.757-.257,3.513-.51c1.009-.147,2.021-.273,3.025-.452a10.112,10.112,0,0,0,3.565-1.459c.788-.491,1.594-.953,2.385-1.439a1.654,1.654,0,0,0,.861-1.933,1.578,1.578,0,0,0-1.8-1.175,8.463,8.463,0,0,0-2.066.439c-1.454.525-2.879,1.128-4.312,1.708-.4.161-.813.3-1.022-.206s.135-.749.568-.862.536-.355.533-.789c-.022-2.8-.011-5.6-.011-8.45a5.861,5.861,0,0,0-4.192,2.383c-.2.261-.359.549-.56.808a.539.539,0,0,1-.811.153.551.551,0,0,1-.142-.816,7.134,7.134,0,0,1,5.51-3.673,1.9,1.9,0,0,0,1.251-.522,2.83,2.83,0,0,1,2.118-.7c3.681.012,7.361.005,11.042.005,1.622,0,3.243-.007,4.865,0a2.906,2.906,0,0,1,3.091,3.126q.005,4.455,0,8.911a2.908,2.908,0,0,1-3.109,3.11c-1.2.007-2.406.012-3.608-.005-.322,0-.5.082-.588.41-.1.4-.278.791-.379,1.2A2.31,2.31,0,0,1,1488.916,1383.559Zm10.491-9.676h-19.765v2.7c.855-.342,1.662-.662,2.467-.987a7.132,7.132,0,0,1,2.978-.58,2.783,2.783,0,0,1,2.632,3.263,9.8,9.8,0,0,1-.482,1.388c.831,0,1.648,0,2.464,0,2.6.005,5.209.017,7.814.015a1.687,1.687,0,0,0,1.875-1.461C1499.453,1376.791,1499.407,1375.353,1499.407,1373.883Zm-.007-3.5h-19.75v2.258h19.75Zm-19.754-1.233h19.731a1.8,1.8,0,0,0-1.971-2.31q-7.872,0-15.743,0C1480.206,1366.845,1479.516,1367.621,1479.645,1369.154Zm12.564,11.7h-1.377c-.913,0-.913,0-1.166.876a1.03,1.03,0,0,0,.59,1.344,1.112,1.112,0,0,0,1.428-.665C1491.865,1381.938,1492.01,1381.45,1492.209,1380.857Zm-3.509,0a10.9,10.9,0,0,1-1.477-.013c-.648-.093-.934.193-1.031.78-.009.054-.027.106-.041.158a1.022,1.022,0,0,0,.6,1.292,1.1,1.1,0,0,0,1.384-.557C1488.347,1382,1488.5,1381.466,1488.7,1380.857Zm-3.56.165-2.479,1.464a1.048,1.048,0,0,0,1.063.685,1.064,1.064,0,0,0,.986-.805C1484.841,1381.973,1484.963,1381.578,1485.141,1381.022Z" transform="translate(-1472.347 -1365.436)" fill="#fff" stroke="#fff" stroke-width="0.5"/>
</svg>
