<svg xmlns="http://www.w3.org/2000/svg" width="24" height="16.501" viewBox="0 0 24 16.501">
  <g id="Group_57" data-name="Group 57" transform="translate(-190.246 -439.038)">
    <path id="Path_59" data-name="Path 59" d="M202.2,455.538q-4.546,0-9.092,0a2.642,2.642,0,0,1-2.86-2.86q0-5.39,0-10.779a2.641,2.641,0,0,1,2.86-2.859q9.139,0,18.278,0a2.64,2.64,0,0,1,2.86,2.86q0,5.39,0,10.779a2.641,2.641,0,0,1-2.86,2.86Q206.792,455.54,202.2,455.538ZM212.744,444.7H191.751c0,2.778-.009,5.525.007,8.271a1.091,1.091,0,0,0,1.188,1.066q9.3.006,18.6,0a1.119,1.119,0,0,0,1.2-1.2c.009-.749,0-1.5,0-2.249Zm-20.992-1.567h20.992c0-.406,0-.779,0-1.152,0-1.057-.381-1.437-1.437-1.437H193.18c-.125,0-.25-.006-.375,0a1.11,1.11,0,0,0-1.049,1.064C191.733,442.105,191.751,442.6,191.751,443.129Z" fill="#fff"/>
    <path id="Path_60" data-name="Path 60" d="M232.252,551.042c1.606,0,1.959.357,1.959,1.979,0,1.646-.344,1.98-2.041,1.979-1.576,0-1.917-.361-1.917-2.021C230.254,551.388,230.611,551.042,232.252,551.042Z" transform="translate(-36.551 -102.762)" fill="#fff"/>
  </g>
</svg>
