<svg width="24" height="24" viewBox="0 0 24 24" fill="none" xmlns="http://www.w3.org/2000/svg">
<path d="M20.125 20.5713H3.875C2.8375 20.5713 2 19.6142 2 18.4285V5.57132C2 4.38561 2.8375 3.42847 3.875 3.42847H20.125C21.1625 3.42847 22 4.38561 22 5.57132V18.4285C22 19.6142 21.1625 20.5713 20.125 20.5713ZM3.875 4.85704C3.525 4.85704 3.25 5.17132 3.25 5.57132V18.4285C3.25 18.8285 3.525 19.1428 3.875 19.1428H20.125C20.475 19.1428 20.75 18.8285 20.75 18.4285V5.57132C20.75 5.17132 20.475 4.85704 20.125 4.85704H3.875Z" fill="#818181"/>
<path d="M12 14.8446C11.2229 14.8446 10.5124 14.4903 9.97959 13.8451L4.15149 6.7853C3.94057 6.53226 3.95167 6.1274 4.1737 5.88701C4.39572 5.64663 4.75095 5.65928 4.96188 5.91232L10.79 12.9721C11.4227 13.7438 12.5773 13.7438 13.21 12.9721L19.0381 5.92497C19.249 5.67193 19.6043 5.65928 19.8263 5.89966C20.0483 6.14005 20.0594 6.54491 19.8485 6.79795L14.0204 13.8577C13.4876 14.503 12.7771 14.8572 12 14.8572V14.8446Z" fill="#818181"/>
</svg>
