<?xml version="1.0" encoding="utf-8"?>
<!-- Generator: Adobe Illustrator 24.1.2, SVG Export Plug-In . SVG Version: 6.00 Build 0)  -->
<svg xmlns="http://www.w3.org/2000/svg" width="36" height="36" viewBox="0 0 36 36" >
  <g id="Group_4585" data-name="Group 4585" transform="translate(-465.5 -46.175)">
    <rect id="Rectangle_29" data-name="Rectangle 29" width="36" height="36" rx="7" transform="translate(465.5 46.175)" fill="#fff"/>
    <g id="Group_4581" data-name="Group 4581" transform="translate(3812.948 -2700.24)" >
      <path id="Path_1038" data-name="Path 1038" fill="#ABABAB" d="M-3329.458,2772.889a13.9,13.9,0,0,1-7.584-2.7,24.934,24.934,0,0,1-4.982-4.575,1.681,1.681,0,0,1-.121-2.283,21.129,21.129,0,0,1,8.751-6.645c3.749-1.425,7.247-.7,10.577,1.29a23.435,23.435,0,0,1,5.96,5.215,1.678,1.678,0,0,1,.089,2.285,21.532,21.532,0,0,1-8.426,6.508,13.281,13.281,0,0,1-2.194.647C-3328.065,2772.775-3328.767,2772.807-3329.458,2772.889Zm.009-2.874a5.611,5.611,0,0,0,5.624-5.6,5.611,5.611,0,0,0-5.623-5.651,5.612,5.612,0,0,0-5.624,5.6A5.61,5.61,0,0,0-3329.448,2770.015Z" fill="#b52423"/>
      <path id="Path_1039" data-name="Path 1039" fill="#ABABAB" d="M-3245.649,2803.4a4,4,0,0,1-3.971,4.012,4,4,0,0,1-4.062-4.025,4,4,0,0,1,3.972-4.01A4,4,0,0,1-3245.649,2803.4Z" transform="translate(-79.783 -39.003)" fill="#b52423"/>
    </g>
  </g>
</svg>
