<svg width="24" height="24" viewBox="0 0 24 24" fill="none" xmlns="http://www.w3.org/2000/svg">
<path fill-rule="evenodd" clip-rule="evenodd" d="M2.25008 15C4.69008 18.82 8.24008 21.02 12.0001 21.02C15.7501 21.02 19.3001 18.82 21.7401 15C22.8001 13.34 22.8001 10.65 21.7401 8.99998C19.3001 5.17998 15.7501 2.97998 12.0001 2.97998C8.25008 2.97998 4.70008 5.17998 2.25008 8.99998C1.19008 10.66 1.19008 13.35 2.25008 15ZM3.52008 9.80998C5.68008 6.41998 8.77008 4.47998 12.0001 4.47998C15.2301 4.47998 18.3201 6.41998 20.4801 9.80998C21.2301 10.98 21.2301 13.02 20.4801 14.19C18.3201 17.58 15.2301 19.52 12.0001 19.52C8.77008 19.52 5.68008 17.58 3.52008 14.19C2.77008 13.02 2.77008 10.98 3.52008 9.80998ZM7.66992 11.9999C7.66992 14.3899 9.60992 16.3299 11.9999 16.3299C14.3899 16.3299 16.3299 14.3899 16.3299 11.9999C16.3299 9.60992 14.3899 7.66992 11.9999 7.66992C9.60992 7.66992 7.66992 9.60992 7.66992 11.9999ZM9.16992 11.9999C9.16992 10.4399 10.4399 9.16992 11.9999 9.16992C13.5599 9.16992 14.8299 10.4399 14.8299 11.9999C14.8299 13.5599 13.5599 14.8299 11.9999 14.8299C10.4399 14.8299 9.16992 13.5599 9.16992 11.9999Z" fill="#9A9A9A"/>
</svg>
