<svg xmlns="http://www.w3.org/2000/svg" width="24.503" height="24.538" viewBox="0 0 24.503 24.538">
  <g id="Group_4563" data-name="Group 4563" transform="translate(-1564.101 -357.965)">
    <path id="Path_881" data-name="Path 881" d="M1571.245,382.25q-2.86,0-5.719,0c-.84,0-1.172-.327-1.172-1.157,0-3.61-.014-7.22,0-10.829a12,12,0,1,1,13.727,11.861,13.329,13.329,0,0,1-1.868.121C1574.558,382.261,1572.9,382.25,1571.245,382.25Zm-5.015-1.877h.38c3.28,0,6.56,0,9.84-.007a8.915,8.915,0,0,0,1.538-.13,10.124,10.124,0,1,0-11.757-9.856q-.007,3.608,0,7.216Z" transform="translate(0 0)" fill="#fff" stroke="#fff" stroke-width="0.5"/>
    <path id="Path_882" data-name="Path 882" d="M1659.718,428.372a4.482,4.482,0,0,1,2.381.594,2.488,2.488,0,0,1,.987,3.4,6.663,6.663,0,0,1-1.43,1.733,2.675,2.675,0,0,0-1.122,2.231c.023.5-.251.694-.874.734-.6.038-.908-.134-.982-.618a3.2,3.2,0,0,1,1.2-3.181,10.545,10.545,0,0,0,.917-.788,1.209,1.209,0,0,0-.876-2.157,1.731,1.731,0,0,0-1.74.806.817.817,0,0,1-1.2.361.945.945,0,0,1-.469-1.192,2.313,2.313,0,0,1,1.052-1.338A4.092,4.092,0,0,1,1659.718,428.372Z" transform="translate(-83.588 -64.146)" fill="#fff" stroke="#fff" stroke-width="0.5"/>
    <path id="Path_883" data-name="Path 883" d="M1676.33,530.162a1,1,0,1,1-.987,1.011A.987.987,0,0,1,1676.33,530.162Z" transform="translate(-99.996 -155.904)" fill="#fff" stroke="#fff" stroke-width="0.5"/>
  </g>
</svg>
