<svg xmlns="http://www.w3.org/2000/svg" width="17.521" height="21.406" viewBox="0 0 17.521 21.406">
  <g id="Group_4575" data-name="Group 4575" transform="translate(3088.384 -1541.443)">
    <path id="Path_1033" data-name="Path 1033" d="M-3077.631,1612.054q0-2.645,0-5.29c0-.835.334-1.255.982-1.244.625.011.959.438.959,1.231q0,5.131,0,10.261a1.89,1.89,0,0,0,2.1,2.122q3.785,0,7.57,0a1.862,1.862,0,0,0,2.007-2.024q0-5.222,0-10.444c0-.674.317-1.086.863-1.139a.953.953,0,0,1,1.078,1.054c.009,1.429,0,2.858,0,4.287q0,3.124,0,6.248a3.769,3.769,0,0,1-3.948,3.96q-3.831.008-7.662,0a3.771,3.771,0,0,1-3.949-3.959C-3077.633,1615.429-3077.631,1613.741-3077.631,1612.054Z" transform="translate(-9.771 -58.229)" fill="#b52423"/>
    <path id="Path_1034" data-name="Path 1034" d="M-3083.524,1544.363c0-.6,0-1.161,0-1.719.005-.849.345-1.2,1.186-1.2q2.712-.006,5.424,0c.844,0,1.185.348,1.194,1.192q.008.8.019,1.594c0,.027.024.053.066.135h.461q1.527,0,3.054,0c.8,0,1.265.357,1.258.982-.008.608-.461.962-1.236.962h-13.173c-.714,0-1.428.01-2.142-.005a.973.973,0,0,1-.958-.816.946.946,0,0,1,.572-1.034,1.707,1.707,0,0,1,.579-.083c1.063-.009,2.127-.006,3.191-.007Zm1.985-.026h3.825v-.917h-3.825Z" transform="translate(0 0)" fill="#b52423"/>
    <path id="Path_1035" data-name="Path 1035" d="M-3022.429,1631.156q0,1.6,0,3.191c0,.725-.381,1.175-.981,1.165-.583-.01-.96-.455-.961-1.147q0-3.237,0-6.473c0-.693.38-1.135.963-1.141s.972.424.975,1.123c.005,1.094,0,2.188,0,3.282Z" transform="translate(-58.17 -77.524)" fill="#b52423"/>
    <path id="Path_1036" data-name="Path 1036" d="M-2979.695,1631.128c0,1.094,0,2.188,0,3.282a.991.991,0,0,1-.958,1.1.975.975,0,0,1-.98-1.074q-.009-3.3,0-6.61a.969.969,0,0,1,.976-1.077.984.984,0,0,1,.962,1.1C-2979.691,1628.94-2979.695,1630.034-2979.695,1631.128Z" transform="translate(-97.006 -77.523)" fill="#b52423"/>
  </g>
</svg>
