<svg xmlns="http://www.w3.org/2000/svg" width="35.35" height="19.074" viewBox="0 0 35.35 19.074">
  <g id="Group_4678" data-name="Group 4678" transform="translate(-1336.957 -1123.754)" opacity="0.5">
    <path id="Path_53" data-name="Path 53" d="M1354.931,1192.418a18.854,18.854,0,0,1,12.086,4.816,22.5,22.5,0,0,1,5.311,6.484,2.283,2.283,0,0,1,.287,1.234,1.2,1.2,0,0,1-1.1,1.074,1.325,1.325,0,0,1-1.48-.765,19.685,19.685,0,0,0-3.5-4.691,17.068,17.068,0,0,0-9.145-5.089,14.751,14.751,0,0,0-11.462,2.888,20.007,20.007,0,0,0-5.916,6.661,2.156,2.156,0,0,1-1.14.966,1.325,1.325,0,0,1-1.529-1.745,2.139,2.139,0,0,1,.171-.376c3.215-5.718,7.82-9.648,14.34-11.073C1352.859,1192.585,1353.9,1192.542,1354.931,1192.418Z" transform="translate(-0.316 -68.664)" fill="#707070"/>
    <g id="Path_54" data-name="Path 54" transform="translate(-68.299 -102.614)" fill="#707070">
      <path d="M1429.736,1238.655a6.786,6.786,0,1,1-6.776-6.839A6.815,6.815,0,0,1,1429.736,1238.655Zm-2.773.028a4.015,4.015,0,1,0-4.085,3.984A4.037,4.037,0,0,0,1426.964,1238.683Z" stroke="none"/>
      <path d="M 1422.958374023438 1245.4423828125 C 1422.9404296875 1245.4423828125 1422.923095703125 1245.442260742188 1422.905029296875 1245.442138671875 C 1419.1572265625 1245.412353515625 1416.148681640625 1242.343017578125 1416.16552734375 1238.565673828125 C 1416.18212890625 1234.858032226563 1419.238891601563 1231.81591796875 1422.943359375 1231.81591796875 C 1422.949096679688 1231.81591796875 1422.954711914063 1231.81591796875 1422.960327148438 1231.81591796875 C 1426.7109375 1231.8251953125 1429.744506835938 1234.887084960938 1429.736328125 1238.655029296875 C 1429.728149414063 1242.388916015625 1426.6728515625 1245.4423828125 1422.958374023438 1245.4423828125 Z M 1422.930786132813 1234.58544921875 C 1420.78369140625 1234.58544921875 1418.966674804688 1236.375366210938 1418.934448242188 1238.537475585938 C 1418.901123046875 1240.779663085938 1420.6591796875 1242.62060546875 1422.878540039063 1242.666870117188 C 1422.906005859375 1242.66748046875 1422.933837890625 1242.667724609375 1422.961181640625 1242.667724609375 C 1425.134765625 1242.667846679688 1426.938598632813 1240.881225585938 1426.963500976563 1238.682739257813 C 1426.98876953125 1236.44580078125 1425.21630859375 1234.619018554688 1422.98828125 1234.585815429688 C 1422.96923828125 1234.585571289063 1422.94970703125 1234.58544921875 1422.930786132813 1234.58544921875 Z" stroke="none" fill="#707070"/>
    </g>
    <g id="Ellipse_4" data-name="Ellipse 4" transform="translate(1349.906 1130.981)" fill="#707070" stroke="#707070" stroke-width="1">
      <circle cx="5" cy="5" r="5" stroke="none"/>
      <circle cx="5" cy="5" r="4.5" fill="none"/>
    </g>
  </g>
</svg>
