<svg xmlns="http://www.w3.org/2000/svg" width="21.094" height="24" viewBox="0 0 21.094 24">
  <g id="icon_locations" transform="translate(-31)">
    <g id="Grupo_3" data-name="Grupo 3" transform="translate(31)">
      <g id="Grupo_2" data-name="Grupo 2" transform="translate(0)">
        <path id="Trazado_3" data-name="Trazado 3" d="M45.554,15.857c2.554-4.007,2.233-3.508,2.306-3.612a7.677,7.677,0,0,0,1.421-4.464A7.734,7.734,0,1,0,35.275,12.3l2.266,3.555c-2.422.372-6.54,1.482-6.54,3.924,0,.89.581,2.159,3.35,3.148A22.193,22.193,0,0,0,41.547,24c5.064,0,10.547-1.428,10.547-4.219C52.094,17.338,47.981,16.23,45.554,15.857Zm-9.1-4.328-.024-.036a6.328,6.328,0,1,1,10.295-.071c-.068.089.286-.46-5.173,8.106Zm5.1,11.065c-5.531,0-9.141-1.626-9.141-2.812,0-.8,1.855-2.109,5.965-2.62l2.583,4.053a.7.7,0,0,0,1.186,0l2.583-4.053c4.11.511,5.965,1.823,5.965,2.62C50.688,20.958,47.11,22.594,41.547,22.594Z" transform="translate(-31)" fill="#fff"/>
      </g>
    </g>
    <g id="Grupo_5" data-name="Grupo 5" transform="translate(38.031 4.266)">
      <g id="Grupo_4" data-name="Grupo 4">
        <path id="Trazado_4" data-name="Trazado 4" d="M184.516,91a3.516,3.516,0,1,0,3.516,3.516A3.52,3.52,0,0,0,184.516,91Zm0,5.625a2.109,2.109,0,1,1,2.109-2.109A2.112,2.112,0,0,1,184.516,96.625Z" transform="translate(-181 -91)" fill="#fff"/>
      </g>
    </g>
  </g>
</svg>
