<svg xmlns="http://www.w3.org/2000/svg" width="22" height="19.653" viewBox="0 0 22 19.653">
  <g id="icon_users" transform="translate(-0.001 -25.494)">
    <g id="Grupo_6" data-name="Grupo 6" transform="translate(0.001 25.494)">
      <path id="Trazado_5" data-name="Trazado 5" d="M17.836,35.07A5.49,5.49,0,0,0,11,26.5a5.492,5.492,0,0,0-6.84,8.571A7.8,7.8,0,0,0,0,42V44.36a.786.786,0,0,0,.786.786H21.215A.786.786,0,0,0,22,44.36V42A7.8,7.8,0,0,0,17.836,35.07Zm-3.693-7.995a3.923,3.923,0,0,1,1.615,7.5c-.06.027-.121.053-.182.079a3.851,3.851,0,0,1-.6.186c-.039.009-.079.013-.119.021a3.93,3.93,0,0,1-.691.07c-.1,0-.21-.008-.314-.017a.593.593,0,0,1-.118-.008,3.969,3.969,0,0,1-1.285-.379c-.015-.007-.032-.006-.047-.013-.079-.038-.157-.071-.227-.113.006-.008.01-.016.016-.024a5.512,5.512,0,0,0,.841-1.533l.024-.066a5.542,5.542,0,0,0,.208-.809c.007-.04.013-.079.019-.122a5.016,5.016,0,0,0,0-1.688c-.006-.041-.012-.079-.019-.122a5.543,5.543,0,0,0-.208-.809l-.024-.066a5.513,5.513,0,0,0-.841-1.533c-.006-.008-.01-.016-.016-.024A3.9,3.9,0,0,1,14.143,27.075ZM3.929,31a3.918,3.918,0,0,1,6.631-2.838c.046.044.09.088.134.134a4.04,4.04,0,0,1,.372.452c.035.049.066.1.1.151a3.865,3.865,0,0,1,.288.53c.02.045.035.09.052.135a3.841,3.841,0,0,1,.195.629c.006.024.007.047.012.071a3.7,3.7,0,0,1,0,1.479c0,.024-.006.048-.012.071a3.832,3.832,0,0,1-.195.629c-.017.045-.032.09-.052.135a3.879,3.879,0,0,1-.288.53c-.032.05-.064.1-.1.151a4.031,4.031,0,0,1-.372.452c-.044.046-.089.09-.134.134a3.922,3.922,0,0,1-1.085.732c-.064.029-.128.056-.193.079a3.952,3.952,0,0,1-.583.181c-.049.011-.1.017-.151.026a3.9,3.9,0,0,1-.647.065H7.815a3.893,3.893,0,0,1-.647-.065c-.05-.009-.1-.015-.151-.026a3.95,3.95,0,0,1-.583-.181l-.193-.079A3.928,3.928,0,0,1,3.929,31ZM14.143,43.575H1.572V42A6.246,6.246,0,0,1,5.75,36.082a5.483,5.483,0,0,0,4.215,0,6.314,6.314,0,0,1,.765.339c.163.084.314.18.471.277.1.064.206.126.3.2.152.108.295.225.435.345.09.079.18.157.265.236.13.123.251.252.368.385.084.1.166.193.244.294.1.132.2.267.292.406.079.118.149.24.218.363s.151.27.217.411.124.295.181.445c.049.13.1.26.143.393.055.182.094.371.132.559.024.112.054.221.071.334a6.5,6.5,0,0,1,.071.94v1.571Zm6.286,0H15.715V42c0-.246-.014-.49-.036-.731-.006-.071-.017-.141-.025-.211-.021-.174-.046-.346-.079-.516q-.021-.109-.045-.219-.057-.262-.131-.52c-.016-.057-.031-.114-.049-.17a7.785,7.785,0,0,0-.947-1.985l-.031-.045q-.2-.3-.433-.582l-.005-.007a7.131,7.131,0,0,0-.507-.563h.032a5.561,5.561,0,0,0,.669.047h.043a5.555,5.555,0,0,0,.619-.04c.064-.008.128-.02.192-.03q.251-.038.495-.1c.046-.012.094-.023.141-.036a5.349,5.349,0,0,0,.629-.214A6.246,6.246,0,0,1,20.429,42v1.571Z" transform="translate(-0.001 -25.494)" fill="#fff"/>
    </g>
  </g>
</svg>
