<svg width="24" height="24" viewBox="0 0 24 24" fill="none" xmlns="http://www.w3.org/2000/svg">
<path d="M3.53894 9.87598H5.65755V11.2884H3.53894V9.87598Z" fill="#ABABAB"/>
<path d="M7.06989 9.87598H9.1885V11.2884H7.06989V9.87598Z" fill="#ABABAB"/>
<path d="M10.601 9.87598H12.7196V11.2884H10.601V9.87598Z" fill="#ABABAB"/>
<path d="M14.132 9.87598H16.2506V11.2884H14.132V9.87598Z" fill="#ABABAB"/>
<path d="M3.53894 12.7007H5.65755V14.1131H3.53894V12.7007Z" fill="#ABABAB"/>
<path d="M7.06989 12.7007H9.1885V14.1131H7.06989V12.7007Z" fill="#ABABAB"/>
<path d="M10.601 12.7007H12.7196V14.1131H10.601V12.7007Z" fill="#ABABAB"/>
<path d="M3.53894 15.5254H5.65755V16.9378H3.53894V15.5254Z" fill="#ABABAB"/>
<path d="M7.06989 15.5254H9.1885V16.9378H7.06989V15.5254Z" fill="#ABABAB"/>
<path d="M19.7816 14.1638V2.10766H16.9568C16.8401 -0.703638 12.8352 -0.701472 12.7195 2.10766H7.06991C6.9532 -0.703638 2.94832 -0.701472 2.83269 2.10766H0.00787354V19.7628H14.1826C14.5263 22.1552 16.5893 24 19.0754 24C25.21 23.8101 25.7828 15.2021 19.7816 14.1638V14.1638ZM14.1319 2.10766C14.1708 1.17053 15.5058 1.17129 15.5444 2.10766V4.22628H14.1319V2.10766ZM4.24509 2.10766C4.28398 1.17058 5.61894 1.17129 5.6575 2.10766V4.22628H4.24509V2.10766ZM2.83269 3.52007V5.63868H7.06991V3.52007H12.7195V5.63868H16.9568V3.52007H18.3692V7.05109H1.42028V3.52007H2.83269ZM1.42028 8.4635H18.3692V14.1638C16.2074 14.4744 14.4932 16.1886 14.1826 18.3503H1.42028V8.4635ZM19.0754 22.5876C17.1284 22.5876 15.5444 21.0036 15.5444 19.0566C15.7383 14.3722 22.4132 14.3735 22.6064 19.0566C22.6064 21.0036 21.0224 22.5876 19.0754 22.5876V22.5876Z" fill="#ABABAB"/>
<path d="M19.7816 16.938H18.3692V19.7628H21.194V18.3504H19.7816V16.938Z" fill="#ABABAB"/>
</svg>
