<svg xmlns="http://www.w3.org/2000/svg" width="24" height="21.606" viewBox="0 0 24 21.606">
  <g id="icon_rooms" transform="translate(0)">
    <path id="Trazado_1" data-name="Trazado 1" d="M22.061,36.4h-.552V32.1H23.3a.7.7,0,0,0,.683-.868l-1.075-4.445a.7.7,0,0,0-.684-.538H19.39a.7.7,0,0,0-.683.538l-1.075,4.445a.7.7,0,0,0,.684.868H20.1v1.687a2.1,2.1,0,0,0-1.1-.312H5a2.112,2.112,0,0,0-2.109,2.109V36.4H1.939A1.941,1.941,0,0,0,0,38.334v6.348a1.941,1.941,0,0,0,1.939,1.939H22.061A1.941,1.941,0,0,0,24,44.682V38.334A1.941,1.941,0,0,0,22.061,36.4ZM1.939,45.215a.534.534,0,0,1-.533-.533V38.334a.533.533,0,0,1,.533-.533h2.51a.533.533,0,0,1,.533.533v6.348a.533.533,0,0,1-.533.533ZM5,34.877H19a.7.7,0,0,1,.7.7V36.4h-.152a1.941,1.941,0,0,0-1.939,1.939v2.471H6.388V38.334A1.941,1.941,0,0,0,4.449,36.4H4.3v-.815a.7.7,0,0,1,.7-.7Zm1.388,9.8V42.212H17.612v2.471a1.933,1.933,0,0,0,.075.533H6.313a1.933,1.933,0,0,0,.075-.533Zm12.63,0V38.334a.533.533,0,0,1,.533-.533h2.51a.533.533,0,0,1,.533.533v6.348a.534.534,0,0,1-.533.533h-2.51A.533.533,0,0,1,19.018,44.682Zm2.65-17.03L22.4,30.69h-3.2l.735-3.038Zm0,0" transform="translate(0 -25.015)" fill="#fff"/>
    <path id="Trazado_2" data-name="Trazado 2" d="M19.789,6.156h11.9a.7.7,0,0,0,.7-.7V.7a.7.7,0,0,0-.7-.7h-11.9a.7.7,0,0,0-.7.7V5.453a.7.7,0,0,0,.7.7Zm.7-4.749H30.986V4.749H20.492Zm0,0" transform="translate(-18.191)" fill="#fff"/>
  </g>
</svg>
