<svg xmlns="http://www.w3.org/2000/svg" width="24" height="24.001" viewBox="0 0 24 24.001">
  <g id="icon_contact" transform="translate(0.001 -0.001)">
    <g id="_066---Contact" data-name="066---Contact" transform="translate(-0.001 0.001)">
      <path id="Shape" d="M23.4,4H9.2L8.28.957A1.353,1.353,0,0,0,6.6.056l-2.037.6a1.36,1.36,0,0,0-.591.358L1.68,3.391a1.348,1.348,0,0,0-.344.649A20.769,20.769,0,0,0,1.988,14.1a20.984,20.984,0,0,0,5.036,8.766,1.356,1.356,0,0,0,.645.354l3.237.747a1.356,1.356,0,0,0,.305.035,1.372,1.372,0,0,0,.386-.056l1.127-.332.908-.268a1.336,1.336,0,0,0,.807-.652,1.322,1.322,0,0,0,.1-1.018L14.036,20H23.4A1.6,1.6,0,0,0,25,18.4V5.6A1.6,1.6,0,0,0,23.4,4Zm-6.3,7.88L24.15,5.334A.785.785,0,0,1,24.2,5.6V18.4a.8.8,0,0,1-.044.252ZM23.4,4.8a.794.794,0,0,1,.135.014l-8.375,7.774a.8.8,0,0,1-1.088,0L8.312,7.255l.424-.125a1.34,1.34,0,0,0,.806-.652,1.32,1.32,0,0,0,.1-1.017l-.2-.661ZM7.293,16.493a9.734,9.734,0,0,1-1.806-3.431,9.019,9.019,0,0,1-.2-4.886.072.072,0,0,1,.049-.044l2.083-.614,4.7,4.347Zm6.44,5.82a.543.543,0,0,1-.328.264l-.53.156L11.9,19.51a.4.4,0,1,0-.766.232l.974,3.218-.738.218a.56.56,0,0,1-.286.009L7.848,22.44a.56.56,0,0,1-.266-.146,20.144,20.144,0,0,1-4.83-8.425,19.96,19.96,0,0,1-.636-9.66.549.549,0,0,1,.14-.263L4.55,1.57a.556.556,0,0,1,.24-.146L5.534,1.2l.974,3.223a.4.4,0,0,0,.383.284.384.384,0,0,0,.116-.017.4.4,0,0,0,.267-.5L6.3.978,6.829.824a.553.553,0,0,1,.688.364l1.36,4.5a.526.526,0,0,1-.04.406.546.546,0,0,1-.328.264l-.531.156L7.82,6a.4.4,0,0,0-.766.231l.156.515-2.1.62a.872.872,0,0,0-.595.6,9.831,9.831,0,0,0,.21,5.327A9.927,9.927,0,0,0,7.5,17.859a.869.869,0,0,0,.826.18l2.108-.622.157.52a.4.4,0,1,0,.766-.232l-.156-.515.525-.155a.555.555,0,0,1,.688.364l1.36,4.5a.526.526,0,0,1-.041.408Zm.061-3.113-.613-2.028a1.354,1.354,0,0,0-1.68-.9l-3.4,1a.08.08,0,0,1-.071-.013c-.056-.049-.12-.11-.194-.18L12.7,12.409l.826.764a1.606,1.606,0,0,0,2.177,0l.808-.75,7.043,6.76a.8.8,0,0,1-.156.017Z" transform="translate(-0.999 -0.001)" fill="#fff"/>
      <path id="Shape-2" data-name="Shape" d="M26.4,14.8h6.4a.4.4,0,1,0,0-.8H26.4a.4.4,0,0,0,0,.8Z" transform="translate(-16 -8.4)" fill="#fff"/>
      <path id="Shape-3" data-name="Shape" d="M55.4,22a.4.4,0,0,0-.4.4V28a.4.4,0,1,0,.8,0V22.4A.4.4,0,0,0,55.4,22Z" transform="translate(-33.4 -13.2)" fill="#fff"/>
    </g>
  </g>
</svg>
