<svg width="24" height="24" viewBox="0 0 24 24" fill="#ccc" color="#ccc" xmlns="http://www.w3.org/2000/svg">
<path d="M17.9216 7.09714C17.3192 7.09714 16.7363 7.18531 16.1878 7.35184V1.73388H11.4416L11.7992 0H4.44245L4.77551 1.73388H0V24H16.1878V18.9992C16.7363 19.1657 17.3192 19.2539 17.9216 19.2539C21.2914 19.249 24 16.4914 24 13.1755C24 9.85469 21.2914 7.09714 17.9216 7.09714ZM10.5698 1.02367L10.0604 3.47265H6.18122L5.72082 1.02367H10.5698V1.02367ZM15.1641 22.9763H1.02367V2.75755H4.97633L5.30939 4.49143H10.8735L11.231 2.75755H15.1641V7.76327C13.8269 8.44898 12.7739 9.61959 12.24 11.0302H2.4V12.049H11.951C11.8824 12.4114 11.8433 12.7886 11.8433 13.1706C11.8433 13.8269 11.951 14.4637 12.1469 15.0612H2.4V16.0849H12.5927C13.1804 17.1527 14.0767 18.0294 15.1641 18.5878V22.9763ZM17.9216 18.1763C15.1151 18.1763 12.8669 15.8792 12.8669 13.1216C12.8669 10.3641 15.1641 8.06694 17.9216 8.06694C20.7282 8.06694 22.9763 10.3641 22.9763 13.1216C22.9763 15.8792 20.7331 18.1763 17.9216 18.1763Z" fill="white"/>
<path d="M20.8849 10.9272L16.9519 14.8603L15.3698 13.2783L14.6547 13.9934L16.9519 16.2905L21.6 11.6423L20.8849 10.9272Z" fill="white"/>
<path d="M13.8368 7.04834H2.40002V8.07201H13.8368V7.04834Z" fill="white"/>
<path d="M13.8368 19.0483H2.40002V20.072H13.8368V19.0483Z" fill="white"/>
</svg>
