<svg xmlns="http://www.w3.org/2000/svg" width="19.784" height="27.694" viewBox="0 0 19.784 27.694"><defs><style>.a{fill:#707070;}</style></defs><g transform="translate(-544.97 -944.99)"><path class="a" d="M549.945,954.879h11.379c2.278,0,3.427,1.142,3.427,3.406q0,4.294,0,8.589a5.634,5.634,0,0,1-5.815,5.806q-4.078.009-8.156,0a5.63,5.63,0,0,1-5.807-5.813c0-2.8,0-5.6,0-8.4,0-2.224.758-3.183,2.968-3.657,0-.974,0-1.96,0-2.946a6.953,6.953,0,0,1,13.645-1.808,7.39,7.39,0,0,1,.194,1.464,1,1,0,0,1-.987,1.106,1.031,1.031,0,0,1-.985-1.059,4.555,4.555,0,0,0-3.121-4.322,5.188,5.188,0,0,0-5.573,1.278,4.14,4.14,0,0,0-1.148,2.544C549.891,952.31,549.945,953.564,549.945,954.879Zm4.923,1.98q-3.307,0-6.613,0c-.976,0-1.3.323-1.3,1.288q0,4.388,0,8.776a3.65,3.65,0,0,0,3.783,3.775q4.079.011,8.158,0a3.659,3.659,0,0,0,3.872-3.879q.009-4.326,0-8.653c0-.969-.331-1.306-1.289-1.307Q558.175,956.855,554.869,956.859Z"/><path class="a" d="M609.838,1070.345c0-.268-.014-.536,0-.8a1.614,1.614,0,0,0-.5-1.41,1.88,1.88,0,0,1,.147-2.71,1.969,1.969,0,0,1,2.777.1,1.912,1.912,0,0,1-.032,2.721,1.254,1.254,0,0,0-.42,1.071c.021.8.015,1.606,0,2.409a.994.994,0,1,1-1.975-.018C609.83,1071.251,609.838,1070.8,609.838,1070.345Z" transform="translate(-55.966 -105.085)"/></g></svg>