<svg width="24" height="24" viewBox="0 0 24 24" fill="none" xmlns="http://www.w3.org/2000/svg">
<path fill-rule="evenodd" clip-rule="evenodd" d="M17.6512 9.77487C20.1835 10.0827 21 11.3618 21 14.5116V16.186C21 19.8781 19.8781 21 16.186 21H7.81395C4.12186 21 3 19.8781 3 16.186V14.5116C3 11.3618 3.81651 10.0827 6.34884 9.77487V8.65116C6.34884 6.22326 6.93488 3 12 3C17.0651 3 17.6512 6.22326 17.6512 8.65116V9.77487ZM7.60465 9.69892V8.65116C7.60465 6.01395 8.34977 4.25581 12 4.25581C15.6502 4.25581 16.3953 6.01395 16.3953 8.65116V9.69892C16.3265 9.69809 16.2568 9.69767 16.186 9.69767H7.81395C7.74325 9.69767 7.67348 9.69809 7.60465 9.69892ZM12 18.0698C10.5014 18.0698 9.27907 16.8474 9.27907 15.3488C9.27907 13.8502 10.5014 12.6279 12 12.6279C13.4986 12.6279 14.7209 13.8502 14.7209 15.3488C14.7209 16.8474 13.4986 18.0698 12 18.0698ZM12 13.8837C11.1963 13.8837 10.5349 14.5451 10.5349 15.3488C10.5349 16.1526 11.1963 16.814 12 16.814C12.8037 16.814 13.4651 16.1526 13.4651 15.3488C13.4651 14.5451 12.8037 13.8837 12 13.8837ZM4.25581 14.5116C4.25581 11.5228 4.81674 10.9535 7.81395 10.9535H16.186C19.1833 10.9535 19.7442 11.5228 19.7442 14.5116V16.186C19.7442 19.1749 19.1833 19.7442 16.186 19.7442H7.81395C4.81674 19.7442 4.25581 19.1749 4.25581 16.186V14.5116Z" fill="#9A9A9A"/>
</svg>
