<svg xmlns="http://www.w3.org/2000/svg" width="17.045" height="23.38" viewBox="0 0 17.045 23.38">
  <g id="Group_4567" data-name="Group 4567" transform="translate(1356.999 -222.682)">
    <path id="Path_895" data-name="Path 895" d="M-1356.5,234.369q0-4.268,0-8.536a2.416,2.416,0,0,1,2.67-2.65c2.5,0,4.992-.014,7.487.012a1.316,1.316,0,0,1,.858.357.8.8,0,0,1,.055.762,1.078,1.078,0,0,1-.745.447c-1.113.049-2.229.021-3.344.021-1.464,0-2.928,0-4.393,0-.711,0-.989.283-.989,1q0,8.586,0,17.171c0,.718.279,1,1,1q3.819,0,7.637,0c.547,0,.888.255.949.688.073.511-.321.91-.927.912-1.7.006-3.394,0-5.091,0-.882,0-1.764,0-2.646,0a2.39,2.39,0,0,1-2.516-2.5C-1356.5,240.16-1356.5,237.265-1356.5,234.369Z" transform="translate(0 0)" fill="#fff" stroke="#fff" stroke-width="1"/>
    <path id="Path_896" data-name="Path 896" d="M-1300.084,298.2c-.568-.553-1.145-1.1-1.7-1.664a.786.786,0,0,1,.044-1.254.756.756,0,0,1,1.044.089q1.6,1.576,3.174,3.176a.762.762,0,0,1-.005,1.158q-1.572,1.6-3.176,3.173a.775.775,0,0,1-1.122.009.784.784,0,0,1,.018-1.157,20.9,20.9,0,0,0,1.674-1.808h-7.109c-.116,0-.233,0-.349,0a.811.811,0,0,1-.867-.825.8.8,0,0,1,.867-.771c2.062-.007,4.124,0,6.186,0h1.244Z" transform="translate(-43.242 -64.746)" fill="#fff" stroke="#fff" stroke-width="1"/>
  </g>
</svg>
