<svg xmlns="http://www.w3.org/2000/svg" width="32" height="35.592" viewBox="0 0 32 35.592">
  <path id="Path_899" data-name="Path 899" d="M-1390.794,2214.551c-1.316,3.467-3.363,5.1-6.339,5.086-2.921-.011-4.977-1.67-6.261-5.082-2.229,0-4.476-.019-6.722.008a2.663,2.663,0,0,1-2.7-1.433,2.658,2.658,0,0,1,.445-2.949c2.581-3.531,2.552-3.542,2.573-7.891a69.007,69.007,0,0,1,.165-7.291,12.573,12.573,0,0,1,11.868-10.943,12.678,12.678,0,0,1,13.046,9.852,15.789,15.789,0,0,1,.326,3.066c.043,2.8-.029,5.611.042,8.414a4.558,4.558,0,0,0,.646,2.054,34,34,0,0,0,2.026,2.937,2.5,2.5,0,0,1,.307,2.755,2.52,2.52,0,0,1-2.463,1.419C-1386.161,2214.544-1388.487,2214.551-1390.794,2214.551Zm7.1-2.572c-.776-1.124-1.468-2.147-2.183-3.156a5.646,5.646,0,0,1-1.059-3.42q.038-4.327.007-8.655a10.156,10.156,0,0,0-10.229-10.158,10.167,10.167,0,0,0-10.1,10.21c0,2.62-.056,5.243.023,7.861a7.017,7.017,0,0,1-1.5,4.8c-.614.772-1.136,1.619-1.76,2.518Zm-16.876,2.588a3.642,3.642,0,0,0,3.839,2.508c1.508-.143,2.94-1.314,3.051-2.508Z" transform="translate(1413.088 -2184.045)" fill="#fff"/>
</svg>
