<svg xmlns="http://www.w3.org/2000/svg" width="24.5" height="24.563" viewBox="0 0 24.5 24.563">
  <g id="Group_4562" data-name="Group 4562" transform="translate(0.25 0.299)">
    <path id="Path_877" data-name="Path 877" d="M-1952.706,4124.813c-2.8,0-5.6-.054-8.4.022a2.825,2.825,0,0,1-2.894-2.913c.069-4.066.021-8.134.023-12.2a2.542,2.542,0,0,1,2.014-2.705c.483-.136.232-.405.2-.662a5.213,5.213,0,0,1-.1-1.452,1.514,1.514,0,0,1,1.123-1.046q4.037-1.474,8.074-2.951a1.63,1.63,0,0,1,1.963.879,7.935,7.935,0,0,1,.469,1.248.628.628,0,0,0,.735.514c1.195-.021,2.39-.014,3.585-.006,1.433.009,2.006.59,2.012,2.021,0,.089,0,.178,0,.268,0,.956.005.945.865,1.29a2.3,2.3,0,0,1,1.553,1.945c.1.9.071,1.815.076,2.724a.647.647,0,0,0,.441.688,1.528,1.528,0,0,1,.958,1.477c0,1.249,0,2.5,0,3.746a1.5,1.5,0,0,1-.966,1.467.64.64,0,0,0-.429.7c0,.856.039,1.717-.041,2.566a2.5,2.5,0,0,1-2.651,2.38C-1946.961,4124.819-1949.833,4124.813-1952.706,4124.813Zm-.01-1.41h5.99c.874,0,1.748.016,2.621-.008a1.2,1.2,0,0,0,1.3-1.353c.006-.624,0-1.248,0-1.872,0-.818,0-.8-.791-.824a17.156,17.156,0,0,1-2.709-.168,3.381,3.381,0,0,1-2.58-3.381,3.367,3.367,0,0,1,2.671-3.358,18.221,18.221,0,0,1,2.874-.138c.426,0,.561-.14.542-.557-.029-.623,0-1.248-.006-1.872,0-1.133-.406-1.535-1.546-1.535h-16.687c-1.137,0-1.527.395-1.528,1.554q0,5.91,0,11.819c0,1.376.324,1.692,1.72,1.693Q-1956.78,4123.4-1952.715,4123.4Zm1.092-20.011c-.051-.175-.12-.388-.175-.6-.112-.441-.358-.561-.793-.4-2.47.914-4.941,1.826-7.422,2.707-.48.17-.657.373-.41.844a1.2,1.2,0,0,1,.132.349c.09.531.412.651.917.643,1.658-.031,3.317-.019,4.975-.017,1.066,0,.905.061.909-.917.006-1.8.14-1.993,1.792-2.508C-1951.685,4103.484-1951.676,4103.461-1951.623,4103.392Zm7.886,10.348v.007c-.588,0-1.177-.021-1.764,0a2.057,2.057,0,0,0-1.979,2.051,2.056,2.056,0,0,0,2,2.091c1.194.029,2.388,0,3.583.015.338,0,.5-.127.494-.465q-.005-1.631,0-3.262c0-.311-.144-.45-.46-.445C-1942.489,4113.747-1943.113,4113.74-1943.737,4113.74Zm-4.88-8.781c-.713,0-1.427-.01-2.139,0-1.431.026-1.3-.285-1.327,1.351-.008.471.155.621.619.615,1.622-.021,3.245.01,4.867-.015,1.563-.024,1.278.258,1.326-1.387.012-.405-.141-.581-.564-.572C-1946.763,4104.973-1947.69,4104.959-1948.617,4104.959Z" transform="translate(1964.001 -4100.822)" fill="#fff" stroke="#fff" stroke-width="0.5"/>
  </g>
</svg>
