<svg xmlns="http://www.w3.org/2000/svg" width="48" height="48" viewBox="0 0 48 48">
  <path id="Path_897" data-name="Path 897" d="M267.8,2367.05a24,24,0,1,1,23.956-23.975A23.993,23.993,0,0,1,267.8,2367.05Zm14.419-8.674c5.183-4.4,8.563-13.292,5.636-21.993a21.181,21.181,0,0,0-40.521,1.01c-2.44,8.763,1.328,17.184,6.039,21.012a15.231,15.231,0,0,1,8.586-9.6,10.472,10.472,0,1,1,11.653-.027C278.828,2351.987,278.828,2351.987,282.217,2358.376Zm-14.454,5.865a21.5,21.5,0,0,0,11.27-3.25,1,1,0,0,0,.531-1.282,12.179,12.179,0,0,0-23.624.007,1,1,0,0,0,.541,1.278A21.53,21.53,0,0,0,267.763,2364.241Zm-7.649-24.228a7.64,7.64,0,1,0,7.663-7.616A7.689,7.689,0,0,0,260.114,2340.013Z" transform="translate(-243.754 -2319.05)" fill="#fff"/>
</svg>
