<svg xmlns="http://www.w3.org/2000/svg" width="24.496" height="27.147" viewBox="0 0 24.496 27.147">
  <g id="Group_4566" data-name="Group 4566" transform="translate(1308.377 -1438.959)">
    <path id="Path_893" data-name="Path 893" d="M-1284.172,1448.719c0,1.63.1,3.266-.02,4.887a11.97,11.97,0,0,1-4.3,8.214,18.734,18.734,0,0,1-7.236,3.958,1.135,1.135,0,0,1-.6.056,17.6,17.6,0,0,1-9.584-6.411,11.4,11.4,0,0,1-2.207-6.808q-.014-4.24,0-8.48c0-.718.209-.923.932-.937a19.918,19.918,0,0,0,7.053-1.362,8.3,8.3,0,0,0,3.46-2.321.647.647,0,0,1,1.078-.034,9.535,9.535,0,0,0,4.719,2.787,20.189,20.189,0,0,0,5.778.928c.783.013.976.212.977,1q0,2.263,0,4.526Zm-22.606-4.149c-.008.151-.019.253-.019.355,0,2.6-.031,5.2.007,7.8a10.421,10.421,0,0,0,2.805,6.983,16.711,16.711,0,0,0,7.593,4.707,1.042,1.042,0,0,0,.594-.013,17.32,17.32,0,0,0,6.476-3.635,10.876,10.876,0,0,0,3.854-8.475c-.029-2.393-.005-4.786-.005-7.179v-.57a23.4,23.4,0,0,1-5.686-.958,12.472,12.472,0,0,1-4.954-2.652C-1299.209,1443.557-1302.909,1444.245-1306.778,1444.57Z" transform="translate(0 0)" fill="#fff" stroke="#fff" stroke-width="0.5"/>
    <path id="Path_894" data-name="Path 894" d="M-1230,1520.32c0-.489-.01-.921,0-1.352a2.764,2.764,0,0,1,2.8-2.767,2.738,2.738,0,0,1,2.748,2.757c.014.447,0,.894,0,1.331,1.379.208,1.383.208,1.387,1.573q.006,2.248,0,4.5c0,.735-.2.934-.929.935q-3.223,0-6.445,0c-.737,0-.961-.224-.964-.976-.005-1.625,0-3.25,0-4.875,0-.888.18-1.072,1.068-1.1C-1230.24,1520.342-1230.153,1520.332-1230,1520.32Zm.032,1.456v4.091h5.488v-4.091Zm4.145-1.453c0-.38,0-.719,0-1.057a3.45,3.45,0,0,0-.038-.536,1.343,1.343,0,0,0-1.362-1.14,1.357,1.357,0,0,0-1.358,1.215c-.042.495-.008,1-.008,1.519Z" transform="translate(-68.913 -69.2)" fill="#fff" stroke="#fff" stroke-width="0.5"/>
  </g>
</svg>
