<svg xmlns="http://www.w3.org/2000/svg" width="18" height="18" viewBox="0 0 18 18">
  <g id="Group_4590" data-name="Group 4590" transform="translate(4729.945 -2187.76)">
    <path id="Path_1040" data-name="Path 1040" d="M-4711.945,2196.758a9,9,0,0,1-9.007,9,9,9,0,0,1-8.993-9.016,9,9,0,0,1,8.989-8.984A9,9,0,0,1-4711.945,2196.758Zm-9.019,7.594a7.6,7.6,0,0,0,7.611-7.583,7.6,7.6,0,0,0-7.557-7.6,7.6,7.6,0,0,0-7.628,7.565A7.6,7.6,0,0,0-4720.963,2204.352Z" fill="#b52423"/>
    <path id="Path_1041" data-name="Path 1041" d="M-4657.68,2277.875a3,3,0,0,1,.292-.422q2.316-2.328,4.642-4.647c.083-.083.162-.169.249-.246a.884.884,0,0,1,1.259,0,.883.883,0,0,1,0,1.227c-.066.077-.141.147-.213.22q-2.725,2.725-5.45,5.449c-.633.633-1.042.635-1.667.011-.847-.846-1.7-1.689-2.537-2.541a.881.881,0,0,1-.185-1.115.793.793,0,0,1,.935-.394,1.437,1.437,0,0,1,.577.365C-4659.1,2276.437-4658.44,2277.114-4657.68,2277.875Z" transform="translate(-64.74 -79.349)" fill="#b52423"/>
  </g>
</svg>
