<svg xmlns="http://www.w3.org/2000/svg" width="35.465" height="30.093" viewBox="0 0 35.465 30.093">
  <g id="Group_4677" data-name="Group 4677" transform="translate(-1336.906 -1112.735)" opacity="0.5">
    <path id="Path_53" data-name="Path 53" d="M1354.931,1192.418a18.854,18.854,0,0,1,12.086,4.816,22.5,22.5,0,0,1,5.311,6.484,2.283,2.283,0,0,1,.287,1.234,1.2,1.2,0,0,1-1.1,1.074,1.325,1.325,0,0,1-1.48-.765,19.685,19.685,0,0,0-3.5-4.691,17.068,17.068,0,0,0-9.145-5.089,14.751,14.751,0,0,0-11.462,2.888,20.007,20.007,0,0,0-5.916,6.661,2.156,2.156,0,0,1-1.14.966,1.325,1.325,0,0,1-1.529-1.745,2.139,2.139,0,0,1,.171-.376c3.215-5.718,7.82-9.648,14.34-11.073C1352.859,1192.585,1353.9,1192.542,1354.931,1192.418Z" transform="translate(-0.316 -68.664)" fill="#707070"/>
    <path id="Path_54" data-name="Path 54" d="M1429.736,1238.655a6.786,6.786,0,1,1-6.776-6.839A6.815,6.815,0,0,1,1429.736,1238.655Zm-2.773.028a4.015,4.015,0,1,0-4.085,3.984A4.037,4.037,0,0,0,1426.964,1238.683Z" transform="translate(-68.299 -102.614)" fill="#707070"/>
    <path id="Path_55" data-name="Path 55" d="M1457.942,1116.234c0,.667.015,1.335,0,2a1.379,1.379,0,1,1-2.758,0q-.028-2.036,0-4.072a1.391,1.391,0,0,1,1.38-1.425,1.413,1.413,0,0,1,1.382,1.429c.013.345,0,.69,0,1.035S1457.943,1115.889,1457.942,1116.234Z" transform="translate(-101.907)" fill="#707070"/>
    <path id="Path_56" data-name="Path 56" d="M1336.906,1167c.284-.365.5-.9.887-1.069a1.624,1.624,0,0,1,1.394.084,43.691,43.691,0,0,1,3.344,2.979,1.363,1.363,0,0,1-1.82,2.006c-1.14-.964-2.241-1.975-3.326-3A3.624,3.624,0,0,1,1336.906,1167Z" transform="translate(0 -45.739)" fill="#707070"/>
    <path id="Path_57" data-name="Path 57" d="M1556.273,1166.63a5.447,5.447,0,0,1-.685,1.05c-.91.877-1.861,1.711-2.809,2.547a1.379,1.379,0,0,1-2.079.035,1.393,1.393,0,0,1,.251-2.113q1.429-1.3,2.868-2.586a1.356,1.356,0,0,1,1.536-.264A1.6,1.6,0,0,1,1556.273,1166.63Z" transform="translate(-183.902 -45.184)" fill="#707070"/>
  </g>
</svg>
