<svg xmlns="http://www.w3.org/2000/svg" width="25.002" height="28.766" viewBox="0 0 25.002 28.766">
  <g id="Group_4564" data-name="Group 4564" transform="translate(91.088 -1385.275)">
    <path id="Path_884" data-name="Path 884" d="M7.421,1514.266a9.372,9.372,0,0,1-1.347-.085,2.7,2.7,0,0,1-2.163-2.584c-.029-1.359-.031-2.719,0-4.078a2.7,2.7,0,0,1,2.392-2.609,16.912,16.912,0,0,1,2.256-.052.928.928,0,0,1,.976,1.03c.008,2.554.041,5.108-.008,7.661a4.681,4.681,0,0,1-4.57,4.49c-1.525.028-3.05.012-4.575,0a.563.563,0,0,0-.6.344,2.763,2.763,0,0,1-3.2,1.444,2.827,2.827,0,0,1-2.137-2.743,2.84,2.84,0,0,1,2.164-2.724,2.845,2.845,0,0,1,3.205,1.47.736.736,0,0,0,.527.318q2.232.038,4.464.01A2.63,2.63,0,0,0,7.421,1514.266Zm.233-7.5a8.885,8.885,0,0,0-1.062.008.843.843,0,0,0-.8.893c-.017,1.245-.02,2.49,0,3.735a.928.928,0,0,0,.925.9.913.913,0,0,0,.925-.844C7.671,1509.9,7.655,1508.352,7.655,1506.763Zm-10.342,11.273a.943.943,0,0,0,.924-.963.925.925,0,0,0-.916-.908.924.924,0,0,0-.95.929A.933.933,0,0,0-2.688,1518.036Z" transform="translate(-75.889 -106.16)" fill="#fff" stroke="#fff" stroke-width="0.5"/>
    <path id="Path_885" data-name="Path 885" d="M-77.147,1385.525a12.234,12.234,0,0,1,11.98,9.848c.011.054.017.109.026.163.125.755-.117,1.234-.68,1.346-.607.121-1.023-.243-1.179-1a10.063,10.063,0,0,0-6.361-7.734,10.323,10.323,0,0,0-13.95,7.586,2.9,2.9,0,0,1-.1.428.945.945,0,0,1-1.146.618.86.86,0,0,1-.658-1,16.552,16.552,0,0,1,.682-2.487A12.18,12.18,0,0,1-77.147,1385.525Z" transform="translate(-1.426)" fill="#fff" stroke="#fff" stroke-width="0.5"/>
    <path id="Path_886" data-name="Path 886" d="M-85.19,1509.608c0,.642.015,1.285,0,1.926a2.8,2.8,0,0,1-2.749,2.741,2.793,2.793,0,0,1-2.865-2.625c-.057-1.943-.026-3.889-.014-5.833a.9.9,0,0,1,.93-.954,16.706,16.706,0,0,1,2.253.034,2.743,2.743,0,0,1,2.448,2.675c.02.678,0,1.358,0,2.036Zm-3.753-2.854c0,1.586-.012,3.111.007,4.635a.925.925,0,0,0,.925.91.919.919,0,0,0,.93-.9q.028-1.874,0-3.749a.848.848,0,0,0-.81-.888A9.044,9.044,0,0,0-88.943,1506.754Z" transform="translate(0 -106.158)" fill="#fff" stroke="#fff" stroke-width="0.5"/>
    <path id="Path_887" data-name="Path 887" d="M-24.124,1413.069c.229-.254.409-.609.694-.745a9.364,9.364,0,0,1,8.427,0,.923.923,0,0,1,.508,1.313.955.955,0,0,1-1.372.359,7.6,7.6,0,0,0-3.724-.785,7.888,7.888,0,0,0-3.015.767A1.039,1.039,0,0,1-24.124,1413.069Z" transform="translate(-59.359 -22.955)" fill="#fff" stroke="#fff" stroke-width="0.5"/>
  </g>
</svg>
