<svg xmlns="http://www.w3.org/2000/svg" width="138.416" height="95.164" viewBox="0 0 138.416 95.164">
  <g id="Group_57" data-name="Group 57" transform="translate(-190.246 -439.038)">
    <path id="Path_59" data-name="Path 59" d="M259.183,534.2q-26.219,0-52.438,0c-10.249-.006-16.488-6.246-16.492-16.494q-.013-31.085,0-62.169c0-10.249,6.242-16.489,16.494-16.49q52.708-.011,105.416,0c10.255,0,16.487,6.234,16.492,16.492q.014,31.084,0,62.168c-.005,10.255-6.24,16.487-16.494,16.493Q285.672,534.212,259.183,534.2ZM320,471.675H198.926c0,16.024-.053,31.863.04,47.7.021,3.666,2.932,6.146,6.852,6.149q53.628.033,107.256,0c4.26,0,6.863-2.668,6.911-6.943.049-4.322.012-8.646.012-12.969Zm-121.071-9.04H320c0-2.343,0-4.494,0-6.646,0-6.094-2.195-8.286-8.29-8.287q-52.271,0-104.541,0c-.72,0-1.445-.035-2.16.024a6.4,6.4,0,0,0-6.052,6.139C198.824,456.727,198.926,459.6,198.926,462.635Z" transform="translate(0 0)" fill="#255b97"/>
    <path id="Path_60" data-name="Path 60" d="M241.78,551.042c9.262,0,11.3,2.056,11.3,11.411,0,9.494-1.984,11.418-11.769,11.412-9.087-.007-11.058-2.084-11.053-11.655C230.257,553.036,232.318,551.041,241.78,551.042Z" transform="translate(-20.075 -58.702)" fill="#255b97"/>
  </g>
</svg>
