<svg xmlns="http://www.w3.org/2000/svg" width="20.5" height="24.629" viewBox="0 0 20.5 24.629">
  <g id="Group_4565" data-name="Group 4565" transform="translate(1139.259 -841.714)">
    <path id="Path_888" data-name="Path 888" d="M-1139.007,853.989q0-4.85,0-9.7a2.166,2.166,0,0,1,1.854-2.273,3.516,3.516,0,0,1,.661-.045c3.415,0,6.83,0,10.245-.009a1.47,1.47,0,0,1,1.085.416q2.831,2.626,5.687,5.227a1.256,1.256,0,0,1,.464.995c-.009,5.054,0,10.107-.009,15.161,0,1.484-.94,2.328-2.554,2.329q-7.453,0-14.907,0a2.227,2.227,0,0,1-2.525-2.308C-1139.013,860.519-1139.007,857.254-1139.007,853.989Zm12.3-10.6h-9.631c-.907,0-1.127.2-1.127,1.017q0,9.629,0,19.258c0,.821.22,1.016,1.129,1.016h14.6c.977,0,1.179-.18,1.179-1.065q0-7.016,0-14.031c0-.167-.015-.334-.022-.484a.592.592,0,0,0-.136-.049q-1.665-.006-3.329-.009c-1.758,0-2.656-.818-2.661-2.423C-1126.709,845.566-1126.707,844.515-1126.707,843.386Zm1.564,1.092c0,.9-.039,1.727.027,2.548a.821.821,0,0,0,.568.555c.921.061,1.85.026,2.8.026Z" transform="translate(0 0)" fill="#fff" stroke="#fff" stroke-width="0.5"/>
    <path id="Path_889" data-name="Path 889" d="M-1088.949,948.032c1.322,0,2.644,0,3.967,0a.787.787,0,0,1,.882.821.794.794,0,0,1-.884.875q-4.013,0-8.026,0a.787.787,0,0,1-.882-.821.793.793,0,0,1,.884-.875C-1091.656,948.03-1090.3,948.032-1088.949,948.032Z" transform="translate(-40.015 -96.199)" fill="#fff" stroke="#fff" stroke-width="0.5"/>
    <path id="Path_890" data-name="Path 890" d="M-1088.948,978.032c1.322,0,2.645,0,3.967,0a.787.787,0,0,1,.881.822.794.794,0,0,1-.885.874q-4.014,0-8.027,0a.787.787,0,0,1-.881-.823.794.794,0,0,1,.885-.873C-1091.655,978.03-1090.3,978.032-1088.948,978.032Z" transform="translate(-40.014 -123.408)" fill="#fff" stroke="#fff" stroke-width="0.5"/>
    <path id="Path_891" data-name="Path 891" d="M-1089,1009.73c-1.338,0-2.676,0-4.013,0a.794.794,0,0,1-.884-.876.787.787,0,0,1,.882-.82q4.013,0,8.026,0a.793.793,0,0,1,.884.875.787.787,0,0,1-.882.821C-1086.32,1009.732-1087.658,1009.73-1089,1009.73Z" transform="translate(-40.015 -150.616)" fill="#fff" stroke="#fff" stroke-width="0.5"/>
    <path id="Path_892" data-name="Path 892" d="M-1089.664,1038.026c1.073,0,2.146,0,3.218,0,.646,0,1.03.343,1.013.874-.016.506-.389.819-1.01.821q-3.219.007-6.437,0c-.646,0-1.03-.343-1.013-.874.016-.505.389-.817,1.01-.82C-1091.81,1038.022-1090.737,1038.026-1089.664,1038.026Z" transform="translate(-40.787 -177.819)" fill="#fff" stroke="#fff" stroke-width="0.5"/>
  </g>
</svg>
