<svg xmlns="http://www.w3.org/2000/svg" width="200" height="205" viewBox="0 0 166.174 203.015">
  <g id="Group_4587" data-name="Group 4587" transform="translate(3088.384 -1541.443)">
    <path id="Path_1033" data-name="Path 1033" d="M-3077.62,1667.494q0-25.086,0-50.173c.006-7.916,3.17-11.907,9.313-11.8,5.927.1,9.091,4.151,9.095,11.68q.009,48.659,0,97.317c0,13.116,6.911,20.124,19.885,20.126q35.9.009,71.8-.024c11.83-.009,19.029-7.273,19.039-19.191q.023-49.525.03-99.048c0-6.388,3.009-10.3,8.184-10.8,6.03-.582,10.182,3.352,10.224,10,.085,13.553.034,27.1.027,40.657q0,29.629-.033,59.258c-.052,22.275-15.223,37.514-37.44,37.556q-36.333.071-72.667,0c-22.212-.04-37.407-15.292-37.456-37.546C-3077.647,1699.5-3077.62,1683.5-3077.62,1667.494Z" transform="translate(-1.449 -8.626)" fill="#707070"/>
    <path id="Path_1034" data-name="Path 1034" d="M-3042.29,1569.138c0-5.729-.027-11.013,0-16.3.049-8.051,3.277-11.334,11.245-11.353q25.725-.055,51.444-.03c8.007.014,11.239,3.3,11.321,11.307q.078,7.561.18,15.122c0,.253.231.5.624,1.282,1.279,0,2.826,0,4.371,0q14.482-.009,28.964-.024c7.632-.012,12,3.382,11.927,9.309-.073,5.764-4.371,9.126-11.72,9.128q-62.465,0-124.936,0c-6.771,0-13.547.094-20.318-.049a9.229,9.229,0,0,1-9.079-7.736,8.968,8.968,0,0,1,5.424-9.809,16.185,16.185,0,0,1,5.489-.784c10.087-.084,20.174-.056,30.262-.067Zm18.828-.251h36.274v-8.694h-36.274Z" transform="translate(0.001 0)" fill="#707070"/>
    <path id="Path_1035" data-name="Path 1035" d="M-3005.936,1668.528q0,15.133-.006,30.263c0,6.875-3.612,11.146-9.3,11.053-5.522-.09-9.107-4.314-9.113-10.876q-.027-30.7.006-61.391c0-6.577,3.6-10.767,9.137-10.824,5.61-.058,9.213,4.017,9.247,10.648.052,10.375.015,20.752.015,31.128Z" transform="translate(-8.618 -11.485)" fill="#707070"/>
    <path id="Path_1036" data-name="Path 1036" d="M-2963.208,1668.272c0,10.377.021,20.753-.009,31.128-.018,6.189-3.707,10.389-9.079,10.438-5.449.053-9.283-4.01-9.3-10.185q-.087-31.342,0-62.686c.015-6.248,3.786-10.275,9.256-10.215,5.437.061,9.088,4.151,9.119,10.393C-2963.177,1647.522-2963.211,1657.9-2963.208,1668.272Z" transform="translate(-14.372 -11.486)" fill="#707070"/>
  </g>
</svg>
