<svg xmlns="http://www.w3.org/2000/svg" width="44" height="44" viewBox="0 0 44 44">
  <g id="Union_1" data-name="Union 1" fill="#fff">
    <path d="M 22.0004997253418 43.50009918212891 C 21.06283950805664 43.50009918212891 20.29999923706055 42.7376594543457 20.29999923706055 41.80049896240234 L 20.29999923706055 24.20009994506836 L 20.29999923706055 23.70009994506836 L 19.79999923706055 23.70009994506836 L 2.199599504470825 23.70009994506836 C 1.262439608573914 23.70009994506836 0.4999995827674866 22.93766021728516 0.4999995827674866 22.0004997253418 C 0.4999995827674866 21.06283950805664 1.262439608573914 20.29999923706055 2.199599504470825 20.29999923706055 L 19.79999923706055 20.29999923706055 L 20.29999923706055 20.29999923706055 L 20.29999923706055 19.79999923706055 L 20.29999923706055 2.199599504470825 C 20.29999923706055 1.262439608573914 21.06283950805664 0.4999995827674866 22.0004997253418 0.4999995827674866 C 22.93766021728516 0.4999995827674866 23.70009994506836 1.262439608573914 23.70009994506836 2.199599504470825 L 23.70009994506836 19.79999923706055 L 23.70009994506836 20.29999923706055 L 24.20009994506836 20.29999923706055 L 41.80049896240234 20.29999923706055 C 42.7376594543457 20.29999923706055 43.50009918212891 21.06283950805664 43.50009918212891 22.0004997253418 C 43.50009918212891 22.93766021728516 42.7376594543457 23.70009994506836 41.80049896240234 23.70009994506836 L 24.20009994506836 23.70009994506836 L 23.70009994506836 23.70009994506836 L 23.70009994506836 24.20009994506836 L 23.70009994506836 41.80049896240234 C 23.70009994506836 42.7376594543457 22.93766021728516 43.50009918212891 22.0004997253418 43.50009918212891 Z" stroke="none"/>
    <path d="M 22.0004997253418 43.00009918212891 C 22.66195869445801 43.00009918212891 23.20009994506836 42.46195983886719 23.20009994506836 41.80049896240234 L 23.20009994506836 24.20009994506836 L 23.20009994506836 23.20009994506836 L 24.20009994506836 23.20009994506836 L 41.80049896240234 23.20009994506836 C 42.46195983886719 23.20009994506836 43.00009918212891 22.66195869445801 43.00009918212891 22.0004997253418 C 43.00009918212891 21.33853912353516 42.46195983886719 20.79999923706055 41.80049896240234 20.79999923706055 L 24.20009994506836 20.79999923706055 L 23.20009994506836 20.79999923706055 L 23.20009994506836 19.79999923706055 L 23.20009994506836 2.199599504470825 C 23.20009994506836 1.538139581680298 22.66195869445801 0.9999995827674866 22.0004997253418 0.9999995827674866 C 21.33853912353516 0.9999995827674866 20.79999923706055 1.538139581680298 20.79999923706055 2.199599504470825 L 20.79999923706055 19.79999923706055 L 20.79999923706055 20.79999923706055 L 19.79999923706055 20.79999923706055 L 2.199599504470825 20.79999923706055 C 1.538139581680298 20.79999923706055 0.9999995827674866 21.33853912353516 0.9999995827674866 22.0004997253418 C 0.9999995827674866 22.66195869445801 1.538139581680298 23.20009994506836 2.199599504470825 23.20009994506836 L 19.79999923706055 23.20009994506836 L 20.79999923706055 23.20009994506836 L 20.79999923706055 24.20009994506836 L 20.79999923706055 41.80049896240234 C 20.79999923706055 42.46195983886719 21.33853912353516 43.00009918212891 22.0004997253418 43.00009918212891 M 22.0004997253418 44.00009918212891 C 20.78549957275391 44.00009918212891 19.79999923706055 43.01549911499023 19.79999923706055 41.80049896240234 L 19.79999923706055 24.20009994506836 L 2.199599504470825 24.20009994506836 C 0.9845995903015137 24.20009994506836 -4.089355343239731e-07 23.21549987792969 -4.089355343239731e-07 22.0004997253418 C -4.089355343239731e-07 20.78549957275391 0.9845995903015137 19.79999923706055 2.199599504470825 19.79999923706055 L 19.79999923706055 19.79999923706055 L 19.79999923706055 2.199599504470825 C 19.79999923706055 0.9845995903015137 20.78549957275391 -4.089355343239731e-07 22.0004997253418 -4.089355343239731e-07 C 23.21549987792969 -4.089355343239731e-07 24.20009994506836 0.9845995903015137 24.20009994506836 2.199599504470825 L 24.20009994506836 19.79999923706055 L 41.80049896240234 19.79999923706055 C 43.01549911499023 19.79999923706055 44.00009918212891 20.78549957275391 44.00009918212891 22.0004997253418 C 44.00009918212891 23.21549987792969 43.01549911499023 24.20009994506836 41.80049896240234 24.20009994506836 L 24.20009994506836 24.20009994506836 L 24.20009994506836 41.80049896240234 C 24.20009994506836 43.01549911499023 23.21549987792969 44.00009918212891 22.0004997253418 44.00009918212891 Z" stroke="none" fill="#fff"/>
  </g>
</svg>
