<svg xmlns="http://www.w3.org/2000/svg" width="25.775" height="30.466" viewBox="0 0 25.775 30.466"><defs><style>.a{fill:#707070;}</style></defs><g transform="translate(-846.993 -454.011)"><path class="a" d="M860.643,572.421a26.31,26.31,0,0,1-9.394-1.477c-3.917-1.526-4.906-3.46-3.875-7.52a12.8,12.8,0,0,1,3.124-5.707c.69-.734,1.337-.838,1.9-.325.547.494.485,1.2-.181,1.916a10.6,10.6,0,0,0-2.879,6.711,1.631,1.631,0,0,0,.739,1.637,11.6,11.6,0,0,0,2.45,1.263,23.694,23.694,0,0,0,14.871-.059,10.9,10.9,0,0,0,2.25-1.184,1.647,1.647,0,0,0,.758-1.63A10.587,10.587,0,0,0,867.8,559.6c-.16-.184-.34-.35-.5-.536a1.17,1.17,0,1,1,1.688-1.616,12.176,12.176,0,0,1,3.3,5.682,20.354,20.354,0,0,1,.451,2.807,3.822,3.822,0,0,1-1.723,3.648,13.568,13.568,0,0,1-6.007,2.333C863.311,572.21,861.579,572.318,860.643,572.421Z" transform="translate(0 -87.944)"/><path class="a" d="M887.195,470.4a8.2,8.2,0,1,1,8.235-8.136A8.209,8.209,0,0,1,887.195,470.4Zm-5.8-8.176a5.848,5.848,0,1,0,5.845-5.866A5.856,5.856,0,0,0,881.391,462.225Z" transform="translate(-27.359)"/></g></svg>