<svg xmlns="http://www.w3.org/2000/svg" width="50.912" height="50.912" viewBox="0 0 50.912 50.912">
  <g id="Union_1" data-name="Union 1" transform="translate(25.456) rotate(45)" fill="#707070">
    <path d="M 18 35.5 C 17.28318023681641 35.5 16.70000076293945 34.91682052612305 16.70000076293945 34.20000076293945 L 16.70000076293945 19.79999923706055 L 16.70000076293945 19.29999923706055 L 16.20000076293945 19.29999923706055 L 1.799999952316284 19.29999923706055 C 1.083179950714111 19.29999923706055 0.5 18.71681976318359 0.5 18 C 0.5 17.28318023681641 1.083179950714111 16.70000076293945 1.799999952316284 16.70000076293945 L 16.20000076293945 16.70000076293945 L 16.70000076293945 16.70000076293945 L 16.70000076293945 16.20000076293945 L 16.70000076293945 1.799999952316284 C 16.70000076293945 1.083179950714111 17.28318023681641 0.5 18 0.5 C 18.71681976318359 0.5 19.29999923706055 1.083179950714111 19.29999923706055 1.799999952316284 L 19.29999923706055 16.20000076293945 L 19.29999923706055 16.70000076293945 L 19.79999923706055 16.70000076293945 L 34.20000076293945 16.70000076293945 C 34.91682052612305 16.70000076293945 35.5 17.28318023681641 35.5 18 C 35.5 18.71681976318359 34.91682052612305 19.29999923706055 34.20000076293945 19.29999923706055 L 19.79999923706055 19.29999923706055 L 19.29999923706055 19.29999923706055 L 19.29999923706055 19.79999923706055 L 19.29999923706055 34.20000076293945 C 19.29999923706055 34.91682052612305 18.71681976318359 35.5 18 35.5 Z" stroke="none"/>
    <path d="M 18 35 C 18.44112014770508 35 18.79999923706055 34.64112091064453 18.79999923706055 34.20000076293945 L 18.79999923706055 19.79999923706055 L 18.79999923706055 18.79999923706055 L 19.79999923706055 18.79999923706055 L 34.20000076293945 18.79999923706055 C 34.64112091064453 18.79999923706055 35 18.44112014770508 35 18 C 35 17.55887985229492 34.64112091064453 17.20000076293945 34.20000076293945 17.20000076293945 L 19.79999923706055 17.20000076293945 L 18.79999923706055 17.20000076293945 L 18.79999923706055 16.20000076293945 L 18.79999923706055 1.799999952316284 C 18.79999923706055 1.358880043029785 18.44112014770508 1 18 1 C 17.55887985229492 1 17.20000076293945 1.358880043029785 17.20000076293945 1.799999952316284 L 17.20000076293945 16.20000076293945 L 17.20000076293945 17.20000076293945 L 16.20000076293945 17.20000076293945 L 1.799999952316284 17.20000076293945 C 1.358880043029785 17.20000076293945 1 17.55887985229492 1 18 C 1 18.44112014770508 1.358880043029785 18.79999923706055 1.799999952316284 18.79999923706055 L 16.20000076293945 18.79999923706055 L 17.20000076293945 18.79999923706055 L 17.20000076293945 19.79999923706055 L 17.20000076293945 34.20000076293945 C 17.20000076293945 34.64112091064453 17.55887985229492 35 18 35 M 18 36 C 17.00550079345703 36 16.20000076293945 35.19359970092773 16.20000076293945 34.20000076293945 L 16.20000076293945 19.79999923706055 L 1.799999952316284 19.79999923706055 C 0.8054999709129333 19.79999923706055 0 18.99449920654297 0 18 C 0 17.00550079345703 0.8054999709129333 16.20000076293945 1.799999952316284 16.20000076293945 L 16.20000076293945 16.20000076293945 L 16.20000076293945 1.799999952316284 C 16.20000076293945 0.8054999709129333 17.00550079345703 0 18 0 C 18.99360084533691 0 19.79999923706055 0.8054999709129333 19.79999923706055 1.799999952316284 L 19.79999923706055 16.20000076293945 L 34.20000076293945 16.20000076293945 C 35.19359970092773 16.20000076293945 36 17.00550079345703 36 18 C 36 18.99449920654297 35.19359970092773 19.79999923706055 34.20000076293945 19.79999923706055 L 19.79999923706055 19.79999923706055 L 19.79999923706055 34.20000076293945 C 19.79999923706055 35.19359970092773 18.99360084533691 36 18 36 Z" stroke="none" fill="#707070"/>
  </g>
</svg>
