<svg width="34" height="34" viewBox="0 0 34 34" fill="none" xmlns="http://www.w3.org/2000/svg">
<path d="M2.125 12.325C2.125 8.75467 2.125 6.9695 2.81983 5.60581C3.43103 4.40628 4.40628 3.43103 5.60581 2.81983C6.9695 2.125 8.75467 2.125 12.325 2.125H21.675C25.2453 2.125 27.0305 2.125 28.3942 2.81983C29.5937 3.43103 30.569 4.40628 31.1802 5.60581C31.875 6.9695 31.875 8.75467 31.875 12.325V21.675C31.875 25.2453 31.875 27.0305 31.1802 28.3942C30.569 29.5937 29.5937 30.569 28.3942 31.1802C27.0305 31.875 25.2453 31.875 21.675 31.875H12.325C8.75467 31.875 6.9695 31.875 5.60581 31.1802C4.40628 30.569 3.43103 29.5937 2.81983 28.3942C2.125 27.0305 2.125 25.2453 2.125 21.675V12.325Z" fill="url(#paint0_linear_5437_59226)"/>
<path d="M25.7924 10.6533C24.1841 9.29333 22.254 8.61333 20.2167 8.5L19.8951 8.84C21.7179 9.29333 23.3263 10.2 24.8274 11.4467C23.0046 10.4267 20.9673 9.74667 18.8228 9.52C18.1795 9.40667 17.6433 9.40667 17 9.40667C16.3567 9.40667 15.8205 9.40667 15.1772 9.52C13.0327 9.74667 10.9954 10.4267 9.17259 11.4467C10.6737 10.2 12.2821 9.29333 14.1049 8.84L13.7833 8.5C11.746 8.61333 9.81594 9.29333 8.20757 10.6533C6.38475 14.28 5.41972 18.36 5.3125 22.5533C6.92087 24.3667 9.17259 25.5 11.5315 25.5C11.5315 25.5 12.2821 24.5933 12.8182 23.8C11.4243 23.46 10.1376 22.6667 9.27982 21.42C10.0304 21.8733 10.781 22.3267 11.5315 22.6667C12.4966 23.12 13.4616 23.3467 14.4266 23.5733C15.2844 23.6867 16.1422 23.8 17 23.8C17.8578 23.8 18.7156 23.6867 19.5734 23.5733C20.5384 23.3467 21.5034 23.12 22.4685 22.6667C23.219 22.3267 23.9696 21.8733 24.7202 21.42C23.8624 22.6667 22.5757 23.46 21.1818 23.8C21.7179 24.5933 22.4685 25.5 22.4685 25.5C24.8274 25.5 27.0791 24.3667 28.6875 22.5533C28.5803 18.36 27.6153 14.28 25.7924 10.6533ZM13.4616 20.5133C12.3893 20.5133 11.4243 19.4933 11.4243 18.2467C11.4243 17 12.3893 15.98 13.4616 15.98C14.5338 15.98 15.4989 17 15.4989 18.2467C15.4989 19.4933 14.5338 20.5133 13.4616 20.5133ZM20.5384 20.5133C19.4662 20.5133 18.5011 19.4933 18.5011 18.2467C18.5011 17 19.4662 15.98 20.5384 15.98C21.6107 15.98 22.5757 17 22.5757 18.2467C22.5757 19.4933 21.6107 20.5133 20.5384 20.5133Z" fill="white"/>
<defs>
<linearGradient id="paint0_linear_5437_59226" x1="17" y1="2.125" x2="17" y2="31.875" gradientUnits="userSpaceOnUse">
<stop stop-color="#687EC9"/>
<stop offset="1" stop-color="#5971C3"/>
</linearGradient>
</defs>
</svg>
