<svg width="34" height="34" viewBox="0 0 34 34" fill="none" xmlns="http://www.w3.org/2000/svg">
<rect x="2.125" y="2.125" width="29.75" height="29.75" rx="6" fill="url(#paint0_radial_5437_59237)"/>
<rect x="2.125" y="2.125" width="29.75" height="29.75" rx="6" fill="url(#paint1_radial_5437_59237)"/>
<rect x="2.125" y="2.125" width="29.75" height="29.75" rx="6" fill="url(#paint2_radial_5437_59237)"/>
<path d="M24.4375 11.1562C24.4375 12.0365 23.724 12.75 22.8438 12.75C21.9635 12.75 21.25 12.0365 21.25 11.1562C21.25 10.276 21.9635 9.5625 22.8438 9.5625C23.724 9.5625 24.4375 10.276 24.4375 11.1562Z" fill="white"/>
<path fill-rule="evenodd" clip-rule="evenodd" d="M17 22.3125C19.934 22.3125 22.3125 19.934 22.3125 17C22.3125 14.066 19.934 11.6875 17 11.6875C14.066 11.6875 11.6875 14.066 11.6875 17C11.6875 19.934 14.066 22.3125 17 22.3125ZM17 20.1875C18.7604 20.1875 20.1875 18.7604 20.1875 17C20.1875 15.2396 18.7604 13.8125 17 13.8125C15.2396 13.8125 13.8125 15.2396 13.8125 17C13.8125 18.7604 15.2396 20.1875 17 20.1875Z" fill="white"/>
<path fill-rule="evenodd" clip-rule="evenodd" d="M6.375 16.575C6.375 13.0047 6.375 11.2195 7.06983 9.85581C7.68103 8.65628 8.65628 7.68103 9.85581 7.06983C11.2195 6.375 13.0047 6.375 16.575 6.375H17.425C20.9953 6.375 22.7805 6.375 24.1442 7.06983C25.3437 7.68103 26.319 8.65628 26.9302 9.85581C27.625 11.2195 27.625 13.0047 27.625 16.575V17.425C27.625 20.9953 27.625 22.7805 26.9302 24.1442C26.319 25.3437 25.3437 26.319 24.1442 26.9302C22.7805 27.625 20.9953 27.625 17.425 27.625H16.575C13.0047 27.625 11.2195 27.625 9.85581 26.9302C8.65628 26.319 7.68103 25.3437 7.06983 24.1442C6.375 22.7805 6.375 20.9953 6.375 17.425V16.575ZM16.575 8.5H17.425C19.2452 8.5 20.4826 8.50165 21.439 8.5798C22.3707 8.65591 22.8471 8.79388 23.1795 8.96322C23.9791 9.37068 24.6293 10.0209 25.0368 10.8205C25.2061 11.1529 25.3441 11.6293 25.4202 12.561C25.4983 13.5174 25.5 14.7548 25.5 16.575V17.425C25.5 19.2452 25.4983 20.4826 25.4202 21.439C25.3441 22.3707 25.2061 22.8471 25.0368 23.1795C24.6293 23.9791 23.9791 24.6293 23.1795 25.0368C22.8471 25.2061 22.3707 25.3441 21.439 25.4202C20.4826 25.4983 19.2452 25.5 17.425 25.5H16.575C14.7548 25.5 13.5174 25.4983 12.561 25.4202C11.6293 25.3441 11.1529 25.2061 10.8205 25.0368C10.0209 24.6293 9.37068 23.9791 8.96322 23.1795C8.79388 22.8471 8.65591 22.3707 8.5798 21.439C8.50165 20.4826 8.5 19.2452 8.5 17.425V16.575C8.5 14.7548 8.50165 13.5174 8.5798 12.561C8.65591 11.6293 8.79388 11.1529 8.96322 10.8205C9.37068 10.0209 10.0209 9.37068 10.8205 8.96322C11.1529 8.79388 11.6293 8.65591 12.561 8.5798C13.5174 8.50165 14.7548 8.5 16.575 8.5Z" fill="white"/>
<defs>
<radialGradient id="paint0_radial_5437_59237" cx="0" cy="0" r="1" gradientUnits="userSpaceOnUse" gradientTransform="translate(12.75 24.4375) rotate(-55.3758) scale(27.1146)">
<stop stop-color="#B13589"/>
<stop offset="0.79309" stop-color="#C62F94"/>
<stop offset="1" stop-color="#8A3AC8"/>
</radialGradient>
<radialGradient id="paint1_radial_5437_59237" cx="0" cy="0" r="1" gradientUnits="userSpaceOnUse" gradientTransform="translate(11.6875 32.9375) rotate(-65.1363) scale(24.0064)">
<stop stop-color="#E0E8B7"/>
<stop offset="0.444662" stop-color="#FB8A2E"/>
<stop offset="0.71474" stop-color="#E2425C"/>
<stop offset="1" stop-color="#E2425C" stop-opacity="0"/>
</radialGradient>
<radialGradient id="paint2_radial_5437_59237" cx="0" cy="0" r="1" gradientUnits="userSpaceOnUse" gradientTransform="translate(0.531252 3.1875) rotate(-8.1301) scale(41.3216 8.83825)">
<stop offset="0.156701" stop-color="#406ADC"/>
<stop offset="0.467799" stop-color="#6A45BE"/>
<stop offset="1" stop-color="#6A45BE" stop-opacity="0"/>
</radialGradient>
</defs>
</svg>
