<svg width="34" height="34" viewBox="0 0 34 34" fill="none" xmlns="http://www.w3.org/2000/svg">
<rect x="2.125" y="2.125" width="29.75" height="29.75" rx="14.875" fill="#1275B1"/>
<path d="M13.4072 10.2979C13.4072 11.2909 12.5465 12.0958 11.4849 12.0958C10.4232 12.0958 9.5625 11.2909 9.5625 10.2979C9.5625 9.30495 10.4232 8.5 11.4849 8.5C12.5465 8.5 13.4072 9.30495 13.4072 10.2979Z" fill="white"/>
<path d="M9.82539 13.4174H13.1115V23.375H9.82539V13.4174Z" fill="white"/>
<path d="M18.4021 13.4174H15.116V23.375H18.4021C18.4021 23.375 18.4021 20.2402 18.4021 18.2802C18.4021 17.1037 18.8038 15.9221 20.4066 15.9221C22.218 15.9221 22.2071 17.4617 22.1986 18.6544C22.1876 20.2135 22.2139 21.8045 22.2139 23.375H25.5V18.1196C25.4722 14.7638 24.5977 13.2176 21.721 13.2176C20.0126 13.2176 18.9536 13.9932 18.4021 14.6949V13.4174Z" fill="white"/>
</svg>
