<svg width="34" height="34" viewBox="0 0 34 34" fill="none" xmlns="http://www.w3.org/2000/svg">
<path d="M12.5255 29.75C9.08835 29.75 5.88431 28.7503 3.1875 27.0253C5.47718 27.1735 9.51795 26.8187 12.0313 24.4213C8.25039 24.2478 6.54528 21.3481 6.32287 20.1088C6.64413 20.2328 8.17626 20.3815 9.04117 20.0345C4.69189 18.944 4.02467 15.1272 4.17294 13.9623C4.98843 14.5323 6.3723 14.7306 6.91596 14.681C2.86322 11.7812 4.32122 7.41918 5.03786 6.47737C7.94625 10.5067 12.305 12.7697 17.6974 12.8956C17.5957 12.4497 17.542 11.9854 17.542 11.5086C17.542 8.0866 20.308 5.3125 23.72 5.3125C25.5027 5.3125 27.1091 6.0698 28.2367 7.28114C29.428 7.00199 31.2208 6.34851 32.0973 5.78341C31.6555 7.36961 30.2801 8.69283 29.4481 9.18327C29.4414 9.16651 29.4551 9.19995 29.4481 9.18327C30.179 9.07273 32.1563 8.6927 32.9375 8.16272C32.5512 9.05383 31.093 10.5355 29.8963 11.3649C30.119 21.1842 22.6063 29.75 12.5255 29.75Z" fill="#47ACDF"/>
</svg>
