<svg width="20" height="21" viewBox="0 0 20 21" fill="none" xmlns="http://www.w3.org/2000/svg">
<path d="M6.25002 9.66667H3.83335C3.36664 9.66667 3.13329 9.66667 2.95503 9.75749C2.79823 9.83739 2.67074 9.96487 2.59085 10.1217C2.50002 10.2999 2.50002 10.5333 2.50002 11V18M13.75 9.66667H16.1667C16.6334 9.66667 16.8668 9.66667 17.045 9.75749C17.2018 9.83739 17.3293 9.96487 17.4092 10.1217C17.5 10.2999 17.5 10.5333 17.5 11V18M13.75 18V5.66667C13.75 4.73325 13.75 4.26654 13.5684 3.91002C13.4086 3.59641 13.1536 3.34144 12.84 3.18166C12.4835 3 12.0168 3 11.0834 3H8.91669C7.98327 3 7.51656 3 7.16004 3.18166C6.84643 3.34144 6.59147 3.59641 6.43168 3.91002C6.25002 4.26654 6.25002 4.73325 6.25002 5.66667V18M18.3334 18H1.66669M9.16669 6.33333H10.8334M9.16669 9.66667H10.8334M9.16669 13H10.8334" stroke="#567299" stroke-width="2" stroke-linecap="round" stroke-linejoin="round"/>
</svg>
