<svg width="20" height="21" viewBox="0 0 20 21" fill="none" xmlns="http://www.w3.org/2000/svg">
<path d="M6.66663 18V6.33333C6.66663 5.55836 6.66663 5.17087 6.75181 4.85295C6.98298 3.99022 7.65685 3.31635 8.51958 3.08519C8.8375 3 9.22498 3 9.99996 3C10.7749 3 11.1624 3 11.4803 3.08519C12.3431 3.31635 13.0169 3.99022 13.2481 4.85295C13.3333 5.17087 13.3333 5.55836 13.3333 6.33333V18M4.33329 18H15.6666C16.6 18 17.0668 18 17.4233 17.8183C17.7369 17.6586 17.9918 17.4036 18.1516 17.09C18.3333 16.7335 18.3333 16.2668 18.3333 15.3333V9C18.3333 8.06658 18.3333 7.59987 18.1516 7.24335C17.9918 6.92975 17.7369 6.67478 17.4233 6.51499C17.0668 6.33333 16.6 6.33333 15.6666 6.33333H4.33329C3.39987 6.33333 2.93316 6.33333 2.57664 6.51499C2.26304 6.67478 2.00807 6.92975 1.84828 7.24335C1.66663 7.59987 1.66663 8.06658 1.66663 9V15.3333C1.66663 16.2668 1.66663 16.7335 1.84828 17.09C2.00807 17.4036 2.26304 17.6586 2.57664 17.8183C2.93316 18 3.39987 18 4.33329 18Z" stroke="#567299" stroke-width="2" stroke-linecap="round" stroke-linejoin="round"/>
</svg>
