<svg width="20" height="21" viewBox="0 0 20 21" fill="none" xmlns="http://www.w3.org/2000/svg">
<path d="M10.9348 12.8705L15.0003 18.8332M9.06586 12.8705L5.00034 18.8332M11.667 11.5C11.667 12.4204 10.9208 13.1666 10.0003 13.1666C9.07987 13.1666 8.33367 12.4204 8.33367 11.5C8.33367 10.5795 9.07987 9.83329 10.0003 9.83329C10.9208 9.83329 11.667 10.5795 11.667 11.5ZM14.2908 4.27685L4.47052 6.90818C4.24511 6.96858 4.13241 6.99878 4.05807 7.06571C3.99268 7.12459 3.94761 7.20266 3.92931 7.28872C3.90852 7.38657 3.93872 7.49927 3.99911 7.72468L4.73243 10.4615C4.79283 10.6869 4.82303 10.7996 4.88996 10.8739C4.94884 10.9393 5.02691 10.9844 5.11298 11.0027C5.21082 11.0235 5.32353 10.9933 5.54893 10.9329L15.3692 8.30154L14.2908 4.27685ZM18.1607 8.4163C17.259 8.65789 16.8082 8.77868 16.4169 8.69549C16.0726 8.62231 15.7603 8.44202 15.5248 8.18046C15.2571 7.8831 15.1363 7.4323 14.8947 6.53068L14.7653 6.04772C14.5237 5.1461 14.4029 4.69529 14.4861 4.30391C14.5593 3.95963 14.7395 3.64736 15.0011 3.41185C15.2985 3.14411 15.7493 3.02332 16.6509 2.78173C16.8763 2.72133 16.989 2.69114 17.0868 2.71193C17.1729 2.73023 17.251 2.7753 17.3098 2.84069C17.3768 2.91503 17.407 3.02773 17.4674 3.25313L18.6321 7.5998C18.6925 7.82521 18.7227 7.93791 18.7019 8.03575C18.6836 8.12182 18.6385 8.19989 18.5731 8.25877C18.4988 8.3257 18.3861 8.3559 18.1607 8.4163ZM2.91843 10.775L4.04535 10.473C4.27075 10.4126 4.38345 10.3824 4.45779 10.3155C4.52318 10.2566 4.56825 10.1785 4.58655 10.0925C4.60735 9.99463 4.57715 9.88193 4.51675 9.65653L4.21479 8.52961C4.1544 8.30421 4.1242 8.19151 4.05726 8.11717C3.99839 8.05178 3.92032 8.00671 3.83425 7.98841C3.7364 7.96761 3.6237 7.99781 3.3983 8.05821L2.27138 8.36017C2.04598 8.42056 1.93328 8.45076 1.85894 8.5177C1.79355 8.57657 1.74848 8.65464 1.73018 8.74071C1.70938 8.83856 1.73958 8.95126 1.79998 9.17666L2.10194 10.3036C2.16233 10.529 2.19253 10.6417 2.25947 10.716C2.31834 10.7814 2.39641 10.8265 2.48248 10.8448C2.58033 10.8656 2.69303 10.8354 2.91843 10.775Z" stroke="#567299" stroke-width="2" stroke-linecap="round" stroke-linejoin="round"/>
</svg>
