<svg width="20" height="21" viewBox="0 0 20 21" fill="none" xmlns="http://www.w3.org/2000/svg">
<path d="M2.08295 8H17.9163M8.33295 3L6.66628 8L9.99961 17.5833L13.3329 8L11.6663 3M10.5118 17.3854L17.9773 8.42679C18.1038 8.27496 18.1671 8.19905 18.1912 8.1143C18.2126 8.03959 18.2126 7.96041 18.1912 7.88569C18.1671 7.80095 18.1038 7.72504 17.9773 7.57321L14.3662 3.23988C14.2927 3.1517 14.256 3.10762 14.2109 3.07592C14.171 3.04784 14.1265 3.02698 14.0794 3.01431C14.0262 3 13.9688 3 13.854 3H6.1452C6.03042 3 5.97303 3 5.91985 3.01431C5.87273 3.02698 5.82821 3.04784 5.7883 3.07592C5.74327 3.10762 5.70653 3.1517 5.63305 3.23988L2.02194 7.57321C1.89541 7.72504 1.83215 7.80095 1.80798 7.88569C1.78666 7.96041 1.78666 8.03959 1.80798 8.1143C1.83215 8.19904 1.89541 8.27496 2.02194 8.42679L9.48747 17.3854C9.66335 17.5965 9.75129 17.702 9.85657 17.7405C9.94894 17.7743 10.0503 17.7743 10.1427 17.7405C10.2479 17.702 10.3359 17.5965 10.5118 17.3854Z" stroke="#567299" stroke-width="2" stroke-linecap="round" stroke-linejoin="round"/>
</svg>
