<svg width="124" height="35" viewBox="0 0 124 35" fill="none" xmlns="http://www.w3.org/2000/svg">
<path d="M39.2298 13.7362C37.3485 13.7362 35.9225 14.4131 35.1708 15.2494V8.63672H33.0466V26.3829H35.0474L35.1275 25.0247C35.9987 25.9761 37.4318 26.4914 39.2512 26.4914C41.0705 26.4914 42.5869 25.9689 43.5053 24.9821C44.6445 23.7667 45.1754 22.1857 45.1754 20.006C45.1754 17.9567 44.6716 16.4209 43.6351 15.3101C42.6295 14.2361 41.23 13.7362 39.2298 13.7362ZM39.0354 15.7306C40.5609 15.7306 41.5439 16.1129 42.2213 16.9699C42.7806 17.6829 43.0299 18.6523 43.0299 20.1138C43.0299 21.7039 42.7361 22.7669 42.1044 23.4592L42.1019 23.4618C41.4528 24.1916 40.3852 24.5617 38.9276 24.5617C36.5503 24.5617 35.6803 23.2539 35.3723 22.4679C35.2405 22.0552 35.1282 21.6922 35.1282 20.4161C35.1282 19.2923 35.1863 18.8105 35.3148 18.1679C35.7075 16.596 37.0295 15.7306 39.0361 15.7306H39.0354Z" fill="white"/>
<path d="M52.8059 13.7363C50.7677 13.7363 49.1034 14.4028 47.9925 15.6648C46.9973 16.7956 46.4709 18.3489 46.4709 20.1572C46.4709 24.1775 48.8392 26.5781 52.8053 26.5781C56.7713 26.5781 59.0963 24.1175 59.0963 20.1572C59.0963 16.197 56.8036 13.7363 52.8053 13.7363H52.8059ZM52.8059 24.5618C50.0514 24.5618 48.5957 23.0389 48.5957 20.1572C48.5957 17.2755 50.1225 15.7959 52.784 15.7959C55.6418 15.7959 56.9728 17.1818 56.9728 20.1572C56.9728 23.1326 55.4932 24.5618 52.8059 24.5618Z" fill="white"/>
<path d="M71.7753 17.9953C71.7753 21.291 71.7895 24.3903 71.8044 26.3834H69.613C69.6079 24.4071 69.6079 21.0862 69.6079 18.2762C69.6079 16.5983 68.6624 15.8169 66.6299 15.8169C64.199 15.8169 63.1108 17.1931 63.1108 18.5571V26.3834H60.9653V13.973H63.0469V15.1336C64.0879 13.9375 65.999 13.7354 67.1711 13.7354C70.0548 13.7354 71.7766 15.328 71.7766 17.9953H71.7753Z" fill="white"/>
<path d="M85.5193 24.932V8.74414H83.3952V15.1308C82.5859 14.2951 81.2026 13.8004 79.5738 13.8004C75.8396 13.8004 73.5204 16.2687 73.5204 20.2426C73.5204 24.2164 75.5167 26.5769 79.1417 26.5769C80.3049 26.5769 82.2805 26.3651 83.4288 25.0631L83.5734 26.3819H85.6097L85.5826 26.0945C85.5826 26.0874 85.5187 25.4092 85.5187 24.9307L85.5193 24.932ZM79.4879 24.6691C76.9168 24.6691 75.6665 23.214 75.6665 20.2212C75.6665 17.3822 77.0027 15.8812 79.5312 15.8812C80.89 15.8812 81.8103 16.1822 82.4284 16.8293C83.0936 17.5255 83.4171 18.6564 83.4171 20.2858C83.4171 23.276 82.1687 24.6691 79.4879 24.6691Z" fill="white"/>
<path d="M99.1722 22.2277H97.0487L97.0242 22.4635C96.9563 23.1138 96.4545 24.6264 93.2667 24.6264C90.6911 24.6264 89.3019 23.4367 89.1347 21.0891H99.2L99.2116 20.8392C99.3272 18.4005 98.806 16.5567 97.6629 15.358C96.6367 14.2821 95.1138 13.7363 93.1369 13.7363C91.2653 13.7363 89.7166 14.3034 88.658 15.3755C87.5556 16.4921 86.9969 18.0938 86.9969 20.1352C86.9969 24.41 89.0991 26.5781 93.2454 26.5781C97.9548 26.5781 98.9242 23.7493 99.1225 22.5332L99.1722 22.2284V22.2277ZM93.1369 15.7307C95.6724 15.7307 96.9518 16.8602 97.0397 19.1814H89.1276C89.1954 17.7831 89.8554 15.7307 93.1369 15.7307Z" fill="white"/>
<path d="M106.718 20.0303L111.825 13.9736H109.323L105.498 18.4893L101.923 13.9736H99.2788L104.243 20.089L98.941 26.3833H101.422L105.423 21.628L109.277 26.3833H111.877L106.718 20.0303Z" fill="white"/>
<path d="M114.484 9.34122V11.9711H113.765V9.34122H112.715V8.74512H115.537V9.34122H114.484Z" fill="white"/>
<path d="M118.632 11.9711V9.8398L117.885 11.9711H117.19L116.468 9.8398V11.9711H115.81V8.74512H116.766L117.546 11.0811L118.363 8.74512H119.29V11.9711H118.632H118.632Z" fill="white"/>
<path d="M4.71134 17.6074H4.71069V17.6216V30.0681H20.6176L8.16396 17.6145L4.71134 17.6074Z" fill="url(#paint0_linear_4630_68099)"/>
<path d="M4.71134 17.6074H4.71069V17.6216V30.0681H20.6176L8.16396 17.6145L4.71134 17.6074Z" fill="url(#paint1_linear_4630_68099)"/>
<path d="M21.6828 17.6082L14.9199 24.3711L20.5895 30.0407L27.3524 23.2778L21.6828 17.6082Z" fill="url(#paint2_linear_4630_68099)"/>
<path d="M20.5896 5.17611L14.92 10.8457L21.6829 17.6086L27.3525 11.939L20.5896 5.17611Z" fill="url(#paint3_linear_4630_68099)"/>
<path d="M4.71069 21.068L20.6176 5.16113H4.71069V17.6076H4.71134L4.71069 21.068Z" fill="url(#paint4_linear_4630_68099)"/>
<defs>
<linearGradient id="paint0_linear_4630_68099" x1="12.6641" y1="17.6836" x2="12.6641" y2="29.6122" gradientUnits="userSpaceOnUse">
<stop offset="0.65" stop-color="#1A8772"/>
<stop offset="0.89" stop-color="#16AF91"/>
<stop offset="1" stop-color="#1A8772"/>
</linearGradient>
<linearGradient id="paint1_linear_4630_68099" x1="4.38907" y1="21.7937" x2="10.848" y2="28.252" gradientUnits="userSpaceOnUse">
<stop stop-color="#205147"/>
<stop offset="1" stop-color="#205349" stop-opacity="0"/>
</linearGradient>
<linearGradient id="paint2_linear_4630_68099" x1="17.6215" y1="27.3379" x2="24.0844" y2="20.8757" gradientUnits="userSpaceOnUse">
<stop offset="0.12" stop-color="#205147"/>
<stop offset="0.5" stop-color="#1D6C5C"/>
</linearGradient>
<linearGradient id="paint3_linear_4630_68099" x1="17.6978" y1="7.9536" x2="24.0677" y2="14.3235" gradientUnits="userSpaceOnUse">
<stop offset="0.12" stop-color="#205147"/>
<stop offset="0.5" stop-color="#1D6C5C"/>
</linearGradient>
<linearGradient id="paint4_linear_4630_68099" x1="12.6641" y1="21.3115" x2="12.6641" y2="5.8483" gradientUnits="userSpaceOnUse">
<stop offset="0.65" stop-color="#1A8772"/>
<stop offset="0.89" stop-color="#16AF91"/>
<stop offset="1" stop-color="#1A8772"/>
</linearGradient>
</defs>
</svg>
